<svg width="626" height="462" viewBox="0 0 626 462" fill="none" xmlns="http://www.w3.org/2000/svg">
<g clip-path="url(#clip0_27_558)">
<path d="M359.139 313.285C359.139 313.285 276.005 303.315 246.908 287.529C217.811 271.744 1.66266 264.267 1.66266 313.285C1.66266 362.303 250.234 383.904 250.234 383.904L380.754 376.426L359.139 313.285Z" fill="#FBBEBE"/>
<path opacity="0.1" d="M359.139 313.285C359.139 313.285 276.005 303.315 246.908 287.529C217.811 271.744 1.66266 264.267 1.66266 313.285C1.66266 362.303 250.234 383.904 250.234 383.904L380.754 376.426L359.139 313.285Z" fill="black"/>
<path d="M335.031 304.146L352.489 354.825L626 358.148V283.375C626 283.375 521.251 259.282 438.117 310.792C438.117 310.792 340.019 299.161 335.031 304.146Z" fill="#00509E"/>
<path opacity="0.1" d="M335.031 304.064L352.489 354.744L626 358.067V283.294C626 283.294 521.251 259.2 438.117 310.71C438.117 310.71 340.019 299.079 335.031 304.064Z" fill="black"/>
<path d="M22.3239 282.96C22.3239 285.791 28.6778 287.894 29.3026 290.625C29.9222 293.334 26.1471 297.454 27.3416 300.042C28.5764 302.687 30.0353 305.223 31.7022 307.62C33.2671 309.859 38.1013 309.532 40.0834 311.632C42.024 313.539 44.0798 315.326 46.2391 316.982C48.3424 318.73 51.1919 319.097 53.5836 320.706C55.8576 322.236 55.5825 327.848 58.098 329.242C60.5018 330.573 64.1813 329.502 66.7888 330.699C69.2915 331.848 70.6115 336.002 73.2871 337.018C75.8676 337.998 79.0614 337.576 81.7895 338.425C84.4299 339.247 87.384 339.113 90.1507 339.805C92.8374 340.476 94.8894 344.501 97.6842 345.044C100.407 345.572 103.598 344.162 106.414 344.563C109.164 344.954 112.361 341.476 115.19 341.739C117.959 341.997 120.567 343.607 123.403 343.737C126.183 343.864 128.931 345.088 131.768 345.088C134.603 345.088 137.529 347.747 140.309 347.619C143.144 347.489 145.711 343.459 148.48 343.202C151.308 342.938 154.683 347.148 157.433 346.757C160.248 346.356 162.478 342.236 165.201 341.707C167.997 341.165 171.607 344.109 174.295 343.438C177.062 342.746 178.704 337.953 181.345 337.131C184.073 336.283 187.454 337.432 190.035 336.452C192.711 335.436 195.971 335.599 198.474 334.45C201.081 333.254 202.953 330.422 205.357 329.09C207.872 327.697 209.032 324.241 211.306 322.711C213.698 321.101 217.342 321.307 219.446 319.559C221.666 317.713 225.827 317.617 227.701 315.631C229.683 313.531 230.485 310.004 232.05 307.765C233.698 305.406 230.463 300.419 231.614 297.926C232.808 295.339 237.8 294.288 238.42 291.579C239.059 288.75 239.386 285.86 239.398 282.96C239.398 280.128 235.128 277.964 234.503 275.233C233.884 272.524 237.026 268.632 235.832 266.045C234.681 263.552 234.828 259.719 233.179 257.36C231.614 255.121 227.709 254.243 225.727 252.143C223.853 250.158 220.498 249.604 218.278 247.758C216.175 246.01 216.443 240.739 214.051 239.129C211.777 237.599 208.602 236.901 206.086 235.508C203.682 234.176 200.281 234.401 197.673 233.204C195.171 232.055 191.25 234.319 188.575 233.303C185.994 232.323 183.901 230.181 181.173 229.333C178.533 228.511 177.292 222.247 174.525 221.556C171.839 220.884 168.533 221.999 165.738 221.456C163.015 220.927 159.351 225.87 156.536 225.469C153.786 225.078 151.729 218.481 148.901 218.217C146.132 217.96 143.011 221.377 140.175 221.247C137.395 221.119 134.604 223.121 131.768 223.121C128.932 223.121 126.107 220.374 123.327 220.501C120.492 220.631 117.992 224.262 115.223 224.52C112.395 224.783 108.922 219.26 106.172 219.651C103.357 220.051 101.181 224.321 98.4579 224.85C95.6624 225.393 92.1609 222.742 89.4736 223.413C86.7066 224.105 85.0418 228.643 82.4011 229.465C79.6731 230.313 77.9923 233.515 75.4119 234.495C72.7358 235.511 67.7649 230.757 65.2617 231.905C62.6543 233.102 60.4021 235.173 57.9984 236.505C55.4828 237.898 51.4838 237.198 49.2097 238.728C46.8179 240.337 46.2298 244.657 44.1264 246.406C41.9057 248.251 38.2428 248.807 36.3687 250.793C34.3866 252.893 34.1113 256.656 32.5465 258.896C30.8985 261.255 30.9499 264.523 29.7993 267.016C28.6053 269.603 25.4176 271.559 24.7982 274.268C24.1738 276.999 22.3239 280.129 22.3239 282.96Z" fill="#3F3D56"/>
<path d="M321.729 334.886C321.729 334.886 227.788 286.699 167.1 304.976C106.412 323.254 21.6149 291.683 11.6388 302.484C1.66272 313.285 -12.4701 429.598 107.243 436.245C226.956 442.891 329.211 416.305 329.211 416.305L321.729 334.886Z" fill="#FBBEBE"/>
<path d="M343.852 329.754C343.852 329.754 306.765 327.408 308.428 340.701C310.09 353.994 311.753 457.015 321.729 459.508C331.705 462 410.683 462 443.105 462H626V302.723C626 302.723 496.311 295.007 431.466 327.408C431.466 327.408 353.505 326.284 343.852 329.754Z" fill="#00509E"/>
<path d="M170.109 80.6216C173.652 80.8217 177.07 82.0043 179.979 84.0368C182.888 86.0694 185.173 88.8716 186.577 92.1292C190.695 102.077 185.393 113.763 177.433 121.017C169.474 128.271 159.249 132.417 149.959 137.868C137.481 145.188 126.268 155.35 120.025 168.395C113.781 181.439 113.117 197.598 120.456 210.06C127.268 221.627 139.654 228.55 151.467 234.934" stroke="#3F3D56" stroke-miterlimit="10"/>
<path d="M136.855 19.9723C140.399 20.1723 143.817 21.3549 146.725 23.3875C149.634 25.4201 151.919 28.2223 153.324 31.4798C157.442 41.4278 152.139 53.1132 144.18 60.3674C136.22 67.6216 125.995 71.7681 116.705 77.2182C104.227 84.5388 93.0147 94.7009 86.7712 107.746C80.5277 120.79 79.8637 136.949 87.2026 149.411C94.0143 160.978 106.4 167.9 118.213 174.285" stroke="#3F3D56" stroke-miterlimit="10"/>
<path d="M27.5195 33.9213C30.4442 31.9115 33.8712 30.7555 37.4164 30.5831C40.9616 30.4107 44.4848 31.2286 47.5909 32.9452C56.9409 38.2919 59.9064 50.7757 58.0561 61.3814C56.2058 71.987 50.6609 81.521 46.6537 91.5141C41.2714 104.937 38.6303 119.832 41.6841 133.966C44.738 148.1 54.111 161.283 67.5479 166.648C80.0196 171.626 94.0541 169.523 107.306 167.344" stroke="#3F3D56" stroke-miterlimit="10"/>
<path d="M123.87 159.299C112.851 159.299 103.918 154.963 103.918 149.614C103.918 144.266 112.851 139.93 123.87 139.93C134.889 139.93 143.822 144.266 143.822 149.614C143.822 154.963 134.889 159.299 123.87 159.299Z" fill="#57B894"/>
<path d="M126.364 157.638C115.345 157.638 106.412 153.302 106.412 147.953C106.412 142.604 115.345 138.268 126.364 138.268C137.383 138.268 146.316 142.604 146.316 147.953C146.316 153.302 137.383 157.638 126.364 157.638Z" stroke="#3F3D56" stroke-miterlimit="10"/>
<path d="M80.6402 150.991C69.6209 150.991 60.688 146.655 60.688 141.306C60.688 135.958 69.6209 131.621 80.6402 131.621C91.6595 131.621 100.592 135.958 100.592 141.306C100.592 146.655 91.6595 150.991 80.6402 150.991Z" fill="#57B894"/>
<path d="M83.1341 149.33C72.1148 149.33 63.1819 144.994 63.1819 139.645C63.1819 134.296 72.1148 129.96 83.1341 129.96C94.1534 129.96 103.086 134.296 103.086 139.645C103.086 144.994 94.1534 149.33 83.1341 149.33Z" stroke="#3F3D56" stroke-miterlimit="10"/>
<path d="M73.9894 187.547C62.9701 187.547 54.0372 183.211 54.0372 177.862C54.0372 172.513 62.9701 168.177 73.9894 168.177C85.0087 168.177 93.9415 172.513 93.9415 177.862C93.9415 183.211 85.0087 187.547 73.9894 187.547Z" fill="#57B894"/>
<path d="M76.4834 185.885C65.4641 185.885 56.5312 181.549 56.5312 176.2C56.5312 170.852 65.4641 166.516 76.4834 166.516C87.5027 166.516 96.4356 170.852 96.4356 176.2C96.4356 181.549 87.5027 185.885 76.4834 185.885Z" stroke="#3F3D56" stroke-miterlimit="10"/>
<path d="M78.1461 96.1576C67.1268 96.1576 58.1939 91.8215 58.1939 86.4727C58.1939 81.1239 67.1268 76.7878 78.1461 76.7878C89.1653 76.7878 98.0983 81.1239 98.0983 86.4727C98.0983 91.8215 89.1653 96.1576 78.1461 96.1576Z" fill="#57B894"/>
<path d="M80.6402 94.496C69.6209 94.496 60.688 90.1599 60.688 84.8111C60.688 79.4623 69.6209 75.1262 80.6402 75.1262C91.6595 75.1262 100.592 79.4623 100.592 84.8111C100.592 90.1599 91.6595 94.496 80.6402 94.496Z" stroke="#3F3D56" stroke-miterlimit="10"/>
<path d="M128.027 90.3419C117.007 90.3419 108.074 86.0058 108.074 80.657C108.074 75.3082 117.007 70.9721 128.027 70.9721C139.046 70.9721 147.979 75.3082 147.979 80.657C147.979 86.0058 139.046 90.3419 128.027 90.3419Z" fill="#57B894"/>
<path d="M130.521 88.6803C119.501 88.6803 110.568 84.3442 110.568 78.9954C110.568 73.6466 119.501 69.3105 130.521 69.3105C141.54 69.3105 150.473 73.6466 150.473 78.9954C150.473 84.3442 141.54 88.6803 130.521 88.6803Z" stroke="#3F3D56" stroke-miterlimit="10"/>
<path d="M105.58 69.5716C94.561 69.5716 85.6281 65.2355 85.6281 59.8867C85.6281 54.5379 94.561 50.2018 105.58 50.2018C116.6 50.2018 125.533 54.5379 125.533 59.8867C125.533 65.2355 116.6 69.5716 105.58 69.5716Z" fill="#57B894"/>
<path d="M108.074 67.91C97.0551 67.91 88.1222 63.5739 88.1222 58.2251C88.1222 52.8762 97.0551 48.5402 108.074 48.5402C119.094 48.5402 128.027 52.8762 128.027 58.2251C128.027 63.5739 119.094 67.91 108.074 67.91Z" stroke="#3F3D56" stroke-miterlimit="10"/>
<path d="M56.5312 73.7257C45.5119 73.7257 36.579 69.3896 36.579 64.0408C36.579 58.6919 45.5119 54.3559 56.5312 54.3559C67.5505 54.3559 76.4833 58.6919 76.4833 64.0408C76.4833 69.3896 67.5505 73.7257 56.5312 73.7257Z" fill="#57B894"/>
<path d="M59.0252 72.0641C48.0059 72.0641 39.073 67.728 39.073 62.3791C39.073 57.0303 48.0059 52.6942 59.0252 52.6942C70.0445 52.6942 78.9774 57.0303 78.9774 62.3791C78.9774 67.728 70.0445 72.0641 59.0252 72.0641Z" stroke="#3F3D56" stroke-miterlimit="10"/>
<path d="M19.9522 101.142C8.93287 101.142 0 96.8064 0 91.4576C0 86.1088 8.93287 81.7727 19.9522 81.7727C30.9714 81.7727 39.9044 86.1088 39.9044 91.4576C39.9044 96.8064 30.9714 101.142 19.9522 101.142Z" fill="#57B894"/>
<path d="M22.4462 99.4809C11.4269 99.4809 2.49402 95.1448 2.49402 89.796C2.49402 84.4471 11.4269 80.1111 22.4462 80.1111C33.4655 80.1111 42.3984 84.4471 42.3984 89.796C42.3984 95.1448 33.4655 99.4809 22.4462 99.4809Z" stroke="#3F3D56" stroke-miterlimit="10"/>
<path d="M148.81 52.9553C137.791 52.9553 128.858 48.6193 128.858 43.2704C128.858 37.9216 137.791 33.5855 148.81 33.5855C159.829 33.5855 168.762 37.9216 168.762 43.2704C168.762 48.6193 159.829 52.9553 148.81 52.9553Z" fill="#57B894"/>
<path d="M151.304 51.2937C140.285 51.2937 131.352 46.9576 131.352 41.6088C131.352 36.26 140.285 31.9239 151.304 31.9239C162.323 31.9239 171.256 36.26 171.256 41.6088C171.256 46.9576 162.323 51.2937 151.304 51.2937Z" stroke="#3F3D56" stroke-miterlimit="10"/>
<path d="M136.34 21.3845C125.321 21.3845 116.388 17.0484 116.388 11.6996C116.388 6.35076 125.321 2.01468 136.34 2.01468C147.359 2.01468 156.292 6.35076 156.292 11.6996C156.292 17.0484 147.359 21.3845 136.34 21.3845Z" fill="#57B894"/>
<path d="M138.834 19.7229C127.815 19.7229 118.882 15.3868 118.882 10.038C118.882 4.68914 127.815 0.353058 138.834 0.353058C149.853 0.353058 158.786 4.68914 158.786 10.038C158.786 15.3868 149.853 19.7229 138.834 19.7229Z" stroke="#3F3D56" stroke-miterlimit="10"/>
<path d="M20.7835 44.6472C9.76428 44.6472 0.831421 40.3112 0.831421 34.9623C0.831421 29.6135 9.76428 25.2774 20.7835 25.2774C31.8028 25.2774 40.7357 29.6135 40.7357 34.9623C40.7357 40.3112 31.8028 44.6472 20.7835 44.6472Z" fill="#57B894"/>
<path d="M23.2775 42.9856C12.2582 42.9856 3.32532 38.6495 3.32532 33.3007C3.32532 27.9519 12.2582 23.6158 23.2775 23.6158C34.2968 23.6158 43.2297 27.9519 43.2297 33.3007C43.2297 38.6495 34.2968 42.9856 23.2775 42.9856Z" stroke="#3F3D56" stroke-miterlimit="10"/>
<path d="M204.51 121.082C193.491 121.082 184.558 116.746 184.558 111.397C184.558 106.048 193.491 101.712 204.51 101.712C215.529 101.712 224.462 106.048 224.462 111.397C224.462 116.746 215.529 121.082 204.51 121.082Z" fill="#57B894"/>
<path d="M207.004 119.42C195.985 119.42 187.052 115.084 187.052 109.735C187.052 104.387 195.985 100.051 207.004 100.051C218.023 100.051 226.956 104.387 226.956 109.735C226.956 115.084 218.023 119.42 207.004 119.42Z" stroke="#3F3D56" stroke-miterlimit="10"/>
<path d="M135.509 116.097C124.489 116.097 115.556 111.761 115.556 106.412C115.556 101.063 124.489 96.7273 135.509 96.7273C146.528 96.7273 155.461 101.063 155.461 106.412C155.461 111.761 146.528 116.097 135.509 116.097Z" fill="#57B894"/>
<path d="M138.003 114.435C126.983 114.435 118.05 110.099 118.05 104.751C118.05 99.4018 126.983 95.0657 138.003 95.0657C149.022 95.0657 157.955 99.4018 157.955 104.751C157.955 110.099 149.022 114.435 138.003 114.435Z" stroke="#3F3D56" stroke-miterlimit="10"/>
<path d="M44.8923 123.574C33.8731 123.574 24.9402 119.238 24.9402 113.89C24.9402 108.541 33.8731 104.205 44.8923 104.205C55.9116 104.205 64.8445 108.541 64.8445 113.89C64.8445 119.238 55.9116 123.574 44.8923 123.574Z" fill="#57B894"/>
<path d="M47.3865 121.913C36.3672 121.913 27.4343 117.577 27.4343 112.228C27.4343 106.879 36.3672 102.543 47.3865 102.543C58.4057 102.543 67.3386 106.879 67.3386 112.228C67.3386 117.577 58.4057 121.913 47.3865 121.913Z" stroke="#3F3D56" stroke-miterlimit="10"/>
<path d="M93.1103 126.898C82.091 126.898 73.158 122.562 73.158 117.213C73.158 111.864 82.091 107.528 93.1103 107.528C104.13 107.528 113.062 111.864 113.062 117.213C113.062 122.562 104.13 126.898 93.1103 126.898Z" fill="#57B894"/>
<path d="M95.6042 125.236C84.585 125.236 75.6521 120.9 75.6521 115.551C75.6521 110.202 84.585 105.866 95.6042 105.866C106.624 105.866 115.556 110.202 115.556 115.551C115.556 120.9 106.624 125.236 95.6042 125.236Z" stroke="#3F3D56" stroke-miterlimit="10"/>
<path d="M89.7848 43.8164C78.7655 43.8164 69.8326 39.4803 69.8326 34.1315C69.8326 28.7827 78.7655 24.4466 89.7848 24.4466C100.804 24.4466 109.737 28.7827 109.737 34.1315C109.737 39.4803 100.804 43.8164 89.7848 43.8164Z" fill="#57B894"/>
<path d="M92.2789 42.1548C81.2596 42.1548 72.3267 37.8187 72.3267 32.4699C72.3267 27.1211 81.2596 22.785 92.2789 22.785C103.298 22.785 112.231 27.1211 112.231 32.4699C112.231 37.8187 103.298 42.1548 92.2789 42.1548Z" stroke="#3F3D56" stroke-miterlimit="10"/>
<path d="M175.413 95.3268C164.394 95.3268 155.461 90.9907 155.461 85.6419C155.461 80.2931 164.394 75.957 175.413 75.957C186.432 75.957 195.365 80.2931 195.365 85.6419C195.365 90.9907 186.432 95.3268 175.413 95.3268Z" fill="#57B894"/>
<path d="M177.907 93.6652C166.888 93.6652 157.955 89.3291 157.955 83.9803C157.955 78.6314 166.888 74.2954 177.907 74.2954C188.926 74.2954 197.859 78.6314 197.859 83.9803C197.859 89.3291 188.926 93.6652 177.907 93.6652Z" stroke="#3F3D56" stroke-miterlimit="10"/>
<path d="M163.774 132.713C152.755 132.713 143.822 128.377 143.822 123.028C143.822 117.68 152.755 113.344 163.774 113.344C174.794 113.344 183.726 117.68 183.726 123.028C183.726 128.377 174.794 132.713 163.774 132.713Z" fill="#57B894"/>
<path d="M166.268 131.052C155.249 131.052 146.316 126.716 146.316 121.367C146.316 116.018 155.249 111.682 166.268 111.682C177.288 111.682 186.22 116.018 186.22 121.367C186.22 126.716 177.288 131.052 166.268 131.052Z" stroke="#3F3D56" stroke-miterlimit="10"/>
<g opacity="0.3">
<path opacity="0.3" d="M163.31 189.157C160.494 184.121 159.98 179.05 162.162 177.832C164.344 176.613 168.397 179.707 171.213 184.743C174.029 189.779 174.543 194.85 172.361 196.069C170.179 197.288 166.127 194.193 163.31 189.157Z" fill="#57B894"/>
<path opacity="0.3" d="M164.625 189.918C161.809 184.882 161.295 179.812 163.477 178.593C165.66 177.374 169.712 180.468 172.528 185.504C175.345 190.54 175.859 195.611 173.677 196.83C171.494 198.049 167.442 194.954 164.625 189.918Z" stroke="#3F3D56" stroke-miterlimit="10"/>
</g>
<g opacity="0.3">
<path opacity="0.3" d="M59.3103 213.3C57.643 211.438 59.7786 206.81 64.0803 202.962C68.382 199.115 73.2208 197.505 74.8881 199.367C76.5554 201.228 74.4197 205.857 70.118 209.704C65.8163 213.552 60.9776 215.161 59.3103 213.3Z" fill="#57B894"/>
<path opacity="0.3" d="M59.766 211.85C58.0987 209.989 60.2343 205.361 64.536 201.513C68.8377 197.666 73.6766 196.056 75.3438 197.918C77.0111 199.779 74.8754 204.408 70.5737 208.255C66.2721 212.102 61.4333 213.712 59.766 211.85Z" stroke="#3F3D56" stroke-miterlimit="10"/>
</g>
<g opacity="0.3">
<path opacity="0.3" d="M152.42 160.958C150.753 159.097 152.889 154.469 157.191 150.621C161.492 146.774 166.331 145.164 167.998 147.026C169.666 148.887 167.53 153.515 163.228 157.363C158.927 161.21 154.088 162.82 152.42 160.958Z" fill="#57B894"/>
<path opacity="0.3" d="M152.876 159.509C151.209 157.648 153.345 153.019 157.646 149.172C161.948 145.324 166.787 143.715 168.454 145.576C170.121 147.438 167.986 152.066 163.684 155.914C159.382 159.761 154.543 161.371 152.876 159.509Z" stroke="#3F3D56" stroke-miterlimit="10"/>
</g>
</g>
<defs>
<clipPath id="clip0_27_558">
<rect width="626" height="462" fill="white" transform="matrix(-1 0 0 1 626 0)"/>
</clipPath>
</defs>
</svg>
