<svg width="336" height="206" viewBox="0 0 336 206" fill="none" xmlns="http://www.w3.org/2000/svg">
    <style>

        #cloud-1 {
            animation: moveClouds 12s infinite;
        }

        #cloud-2 {
        animation: moveClouds 10s infinite;
        }

        #cloud-3 {
        animation: moveClouds 15s infinite;
        }

        @keyframes moveClouds {
            0% {
                transform: translateX(50%);
            }
            100% {
                transform: translateX(-70%);
            }
        }
    </style>
<g id="consumption-header-svg">
<path id="Vector" d="M266.134 10.3906H266.134C251.006 10.3906 238.742 23.9951 238.742 40.7771V62.0989H245.302L249.1 54.199L248.151 62.0989H290.318L293.771 54.9172L292.908 62.0989H297.655V45.3575C297.655 26.0458 283.543 10.3906 266.134 10.3906Z" fill="#2F2E41"/>
<path id="Vector_2" d="M252.912 48.7126C252.912 48.7126 261.462 68.6536 250.062 72.6417L261.462 110.245L280.841 109.105L285.971 96.5708L284.831 77.7694L283.121 65.2351C283.121 65.2351 271.151 68.0838 272.291 47.0034L252.912 48.7126Z" fill="#FFB8B8"/>
<path id="Vector_3" d="M248.352 72.0723C248.352 72.0723 229.543 70.3631 231.253 84.0368C232.963 97.7106 234.673 100.559 234.673 100.559L236.383 121.07L226.123 127.337H216.433C216.433 127.337 186.794 134.174 201.614 141.581C216.433 148.987 221.563 135.883 221.563 135.883C221.563 135.883 248.922 135.883 250.632 131.325C252.342 126.767 248.352 72.0723 248.352 72.0723Z" fill="#FFB8B8"/>
<path id="Vector_4" d="M284.831 66.3749C284.831 66.3749 302.5 60.1078 303.64 73.7815C304.78 87.4553 304.78 88.5948 304.78 88.5948L308.2 107.966C308.2 107.966 315.04 125.058 315.04 130.186C315.04 135.314 320.17 151.266 320.17 151.266C320.17 151.266 327.009 173.486 319.6 172.916C312.19 172.347 311.05 148.987 311.05 148.987L295.66 118.221L291.101 99.4199L284.831 66.3749Z" fill="#FFB8B8"/>
<path id="Vector_5" d="M251.202 69.793H246.642L246.072 93.7221C246.072 93.7221 238.662 103.977 247.782 113.093L250.062 127.907L291.671 126.197L294.52 110.814C294.52 110.814 300.22 98.2801 292.241 86.8853L284.831 63.5259H280.841C280.841 63.5259 290.082 97.5839 270.581 98.2801C254.622 98.8498 251.202 69.793 251.202 69.793Z" fill="#004A8F"/>
<path id="Vector_6" d="M271.584 205.595C271.657 198.349 271.72 193.998 271.72 193.998C271.72 193.998 271.29 198.349 270.56 205.595H225.795C237.624 168.339 248.471 137.721 248.911 136.492C248.913 136.478 248.917 136.465 248.923 136.452L250.304 131.853V131.85L250.889 129.9V129.891L251.507 127.847L252.343 125.058L289.389 123.92L290.425 126.248L293.951 134.172C294.258 134.261 294.548 134.398 294.812 134.578C301.152 138.729 309.067 169.142 316.282 205.595L271.584 205.595Z" fill="#2F2E41"/>
<path id="Vector_7" d="M293.38 119.361L248.352 121.07C248.352 121.07 246.297 136.453 248.352 136.453C248.922 136.453 295.66 140.441 295.09 133.604C294.52 126.767 293.38 119.361 293.38 119.361Z" fill="#2F2E41"/>
<path id="Vector_8" d="M261.721 55.238C270.566 55.238 277.737 48.0708 277.737 39.2296C277.737 30.3884 270.566 23.2212 261.721 23.2212C252.877 23.2212 245.706 30.3884 245.706 39.2296C245.706 48.0708 252.877 55.238 261.721 55.238Z" fill="#FFB8B8"/>
<path id="Vector_9" d="M273.921 18.761C271.171 15.2211 267.115 12.979 262.586 12.979H262.049C251.68 12.979 243.274 22.3578 243.274 33.9271V33.9271H246.748L247.309 29.658L248.132 33.9271H268.738L270.465 30.3154L270.033 33.9271H274.087C275.979 43.3177 273.261 52.7082 265.933 62.0987H272.839L276.291 54.8753L275.428 62.0987H288.592L291.181 45.4847C291.181 33.0423 283.949 22.4914 273.921 18.761Z" fill="#2F2E41"/>
<path id="Vector_10" d="M277.706 20.5107C283.372 20.5107 287.966 15.9192 287.966 10.2553C287.966 4.59147 283.372 0 277.706 0C272.04 0 267.447 4.59147 267.447 10.2553C267.447 15.9192 272.04 20.5107 277.706 20.5107Z" fill="#2F2E41"/>
<path id="Vector_11" d="M188.062 106.034C195.786 106.034 202.048 99.7751 202.048 92.0542C202.048 84.3333 195.786 78.0742 188.062 78.0742C180.338 78.0742 174.076 84.3333 174.076 92.0542C174.076 99.7751 180.338 106.034 188.062 106.034Z" fill="#004A8F"/>
<g id="cloud-1">
<path id="Vector_12" d="M87.8139 81.1226C87.8092 81.5232 87.7065 81.9165 87.5148 82.2683C87.3231 82.6202 87.0483 82.9198 86.7142 83.1411L86.6222 83.1985H45.1917L45.3583 82.691C45.3871 82.601 48.4199 73.8032 61.8463 75.5019C63.1126 75.0691 75.47 71.036 82.8671 75.567C86.149 77.5778 87.8139 79.4469 87.8139 81.1226Z" fill="#F2F2F2"/>
</g>
<path id="Vector_13" d="M153.973 152.696C158.143 152.786 161.461 155.806 161.461 155.806C161.461 155.806 158.017 158.682 153.847 158.593C149.677 158.503 146.36 155.483 146.36 155.483C146.36 155.483 149.803 152.607 153.973 152.696Z" fill="#004A8F"/>
<path id="Vector_14" d="M133.009 138.468C136.776 140.257 141.096 139.043 141.096 139.043C141.096 139.043 139.308 134.93 135.541 133.14C131.773 131.351 127.453 132.565 127.453 132.565C127.453 132.565 129.241 136.678 133.009 138.468Z" fill="#004A8F"/>
<path id="Vector_15" d="M133.392 136.69C137.545 136.31 141.181 138.939 141.181 138.939C141.181 138.939 138.082 142.184 133.929 142.563C129.775 142.943 126.139 140.313 126.139 140.313C126.139 140.313 129.238 137.069 133.392 136.69Z" fill="#3F3D56"/>
<path id="Vector_16" d="M148.618 137.409C148.22 141.559 150.833 145.205 150.833 145.205C150.833 145.205 154.093 142.122 154.491 137.972C154.889 133.822 152.275 130.176 152.275 130.176C152.275 130.176 149.016 133.259 148.618 137.409Z" fill="#3F3D56"/>
<path id="Vector_17" d="M168.18 162.862C166.001 166.417 166.751 170.84 166.751 170.84C166.751 170.84 171.032 169.498 173.211 165.943C175.39 162.387 174.64 157.965 174.64 157.965C174.64 157.965 170.358 159.307 168.18 162.862Z" fill="#3F3D56"/>
<path id="Vector_18" d="M161.859 201.517L162.177 201.302C161.058 199.679 160.447 197.76 160.421 195.789C160.43 192.905 161.847 190.238 163.217 187.658C163.472 187.18 163.725 186.702 163.969 186.225C164.993 184.281 165.809 182.234 166.403 180.118C168.529 172.222 166.436 162.907 160.805 155.199C156.338 149.084 149.679 143.737 140.448 138.853L140.269 139.191C149.448 144.048 156.064 149.358 160.496 155.425C166.059 163.04 168.129 172.234 166.033 180.018C165.446 182.108 164.639 184.13 163.628 186.051C163.385 186.526 163.132 187.002 162.879 187.479C161.487 190.099 160.047 192.809 160.038 195.787C160.063 197.836 160.697 199.83 161.859 201.517Z" fill="#3F3D56"/>
<path id="Vector_19" d="M122.252 139.356C124.263 139.356 125.892 137.727 125.892 135.717C125.892 133.708 124.263 132.079 122.252 132.079C120.242 132.079 118.612 133.708 118.612 135.717C118.612 137.727 120.242 139.356 122.252 139.356Z" fill="#3F3D56"/>
<path id="Vector_20" d="M213.933 205.816H13.5332L16.9148 201.563L66.5299 139.168L68.8137 136.296L89.3134 110.515L113.733 79.8052L145.159 119.326L213.933 205.816Z" fill="#3F3D56"/>
<path id="Vector_21" d="M146.686 120.045C145.395 120.811 144.047 121.477 142.655 122.037C135.556 124.857 127.661 124.935 120.508 122.255C112.05 119.045 105.02 112.087 96.0649 110.807C93.3249 110.415 90.5567 110.586 87.7864 110.752L113.541 78.3628L146.686 120.045Z" fill="#F2F2F2"/>
<g id="chimney-smoke">
<path id="Vector_22" d="M156.211 77.4501C156.893 79.5598 156.44 81.8546 155.884 84.0009C155.328 86.1472 154.667 88.3427 154.951 90.5416C155.565 95.2931 160.22 98.3405 164.54 100.415C168.86 102.489 173.721 104.642 175.625 109.038C176.678 111.47 176.629 114.214 177.038 116.832C177.928 122.359 180.869 127.347 185.275 130.804C181.606 130.717 178.32 128.487 175.723 125.896C173.126 123.304 170.972 120.272 168.178 117.895C164.412 114.69 159.708 112.856 155.287 110.641C150.866 108.425 146.461 105.577 144.172 101.195C141.833 96.7148 142.092 91.2367 143.729 86.4557C144.946 82.905 147.183 77.395 150.063 74.8602C152.331 72.865 155.353 74.7977 156.211 77.4501Z" fill="#F2F2F2"/>
</g>
<path id="Vector_23" d="M270.473 177.846H138.469V205.806H270.473V177.846Z" fill="#F2F2F2"/>
<path id="Vector_24" d="M134.254 180.91L148.624 150.843H263.384L274.113 180.91H134.254Z" fill="#3F3D56"/>
<path id="Vector_25" d="M223.342 152.758H170.081V170.377H223.342V152.758Z" fill="#F2F2F2"/>
<path id="Vector_26" d="M173.53 138.395L165.1 156.014H228.324L223.342 138.395H173.53Z" fill="#3F3D56"/>
<path id="Vector_27" d="M216.828 183.399H174.775V205.806H216.828V183.399Z" fill="#CCCCCC"/>
<path id="Vector_28" d="M166.058 184.165H143.642V205.805H166.058V184.165Z" fill="#CCCCCC"/>
<path id="Vector_29" d="M235.699 185.506H224.108V205.806H235.699V185.506Z" fill="#3F3D56"/>
<g id="windows">
<path id="Vector_30" d="M253.9 186.655H248.249V191.921H253.9V186.655Z" fill="#004A8F"/>
<path id="Vector_31" d="M261.468 186.655H255.816V191.921H261.468V186.655Z" fill="#004A8F"/>
<path id="Vector_32" d="M253.9 193.836H248.249V199.294H253.9V193.836Z" fill="#004A8F"/>
<path id="Vector_33" d="M261.468 193.836H255.816V199.294H261.468V193.836Z" fill="#004A8F"/>
<path id="Vector_34" d="M179.39 157.579H174.967V161.701H179.39V157.579Z" fill="#3F3D56"/>
<path id="Vector_35" d="M185.312 157.579H180.889V161.701H185.312V157.579Z" fill="#3F3D56"/>
<path id="Vector_36" d="M179.39 163.2H174.967V167.471H179.39V163.2Z" fill="#3F3D56"/>
<path id="Vector_37" d="M185.312 163.2H180.889V167.471H185.312V163.2Z" fill="#3F3D56"/>
<path id="Vector_38" d="M212.534 157.579H208.111V161.701H212.534V157.579Z" fill="#3F3D56"/>
<path id="Vector_39" d="M218.457 157.579H214.034V161.701H218.457V157.579Z" fill="#3F3D56"/>
<path id="Vector_40" d="M212.534 163.2H208.111V167.471H212.534V163.2Z" fill="#3F3D56"/>
<path id="Vector_41" d="M218.457 163.2H214.034V167.471H218.457V163.2Z" fill="#3F3D56"/>
<path id="Vector_42" d="M196.058 157.579H191.635V161.701H196.058V157.579Z" fill="#3F3D56"/>
<path id="Vector_43" d="M201.98 157.579H197.557V161.701H201.98V157.579Z" fill="#3F3D56"/>
<path id="Vector_44" d="M196.058 163.2H191.635V167.471H196.058V163.2Z" fill="#3F3D56"/>
<path id="Vector_45" d="M201.98 163.2H197.557V167.471H201.98V163.2Z" fill="#3F3D56"/>
<path id="Vector_46" d="M229.48 187.562H226.695V190.158H229.48V187.562Z" fill="#F2F2F2"/>
<path id="Vector_47" d="M233.209 187.562H230.424V190.158H233.209V187.562Z" fill="#F2F2F2"/>
<path id="Vector_48" d="M229.48 191.101H226.695V193.79H229.48V191.101Z" fill="#F2F2F2"/>
<path id="Vector_49" d="M233.209 191.101H230.424V193.79H233.209V191.101Z" fill="#F2F2F2"/>
</g>
<path id="Vector_50" d="M234.167 197.858C234.59 197.858 234.933 197.515 234.933 197.092C234.933 196.669 234.59 196.326 234.167 196.326C233.743 196.326 233.4 196.669 233.4 197.092C233.4 197.515 233.743 197.858 234.167 197.858Z" fill="#F2F2F2"/>
<path id="Vector_51" d="M187.967 133.802H181.644V135.321H182.909V139.739H186.702V135.321H187.967V133.802Z" fill="#F2F2F2"/>
<path id="Vector_52" d="M175.017 199.292C173.928 203.317 170.197 205.809 170.197 205.809C170.197 205.809 168.232 201.777 169.322 197.752C170.411 193.727 174.141 191.235 174.141 191.235C174.141 191.235 176.106 195.268 175.017 199.292Z" fill="#004A8F"/>
<path id="Vector_53" d="M165.108 199.292C166.198 203.317 169.928 205.809 169.928 205.809C169.928 205.809 171.893 201.777 170.804 197.752C169.715 193.727 165.984 191.235 165.984 191.235C165.984 191.235 164.019 195.268 165.108 199.292Z" fill="#004A8F"/>
<path id="Vector_54" d="M166.709 198.427C169.698 201.335 170.063 205.806 170.063 205.806C170.063 205.806 165.582 205.561 162.594 202.653C159.605 199.745 159.24 195.274 159.24 195.274C159.24 195.274 163.72 195.519 166.709 198.427Z" fill="#3F3D56"/>
<path id="Vector_55" d="M173.417 198.427C170.428 201.335 170.063 205.806 170.063 205.806C170.063 205.806 174.543 205.561 177.532 202.653C180.521 199.745 180.886 195.274 180.886 195.274C180.886 195.274 176.405 195.519 173.417 198.427Z" fill="#3F3D56"/>
<path id="Vector_56" d="M336 205.617H0V206H336V205.617Z" fill="#3F3D56"/>
<g id="cloud-2">
<path id="Vector_57" d="M217.183 96.6812C217.179 97.0818 217.076 97.4751 216.884 97.8269C216.693 98.1788 216.418 98.4784 216.084 98.6997L215.992 98.7571H174.561L174.728 98.2496C174.757 98.1596 177.789 89.3618 191.216 91.0605C192.482 90.6277 204.84 86.5945 212.237 91.1256C215.519 93.1364 217.183 95.0055 217.183 96.6812Z" fill="#F2F2F2"/>
</g>
<g id="cloud-3">
<path id="Vector_58" d="M89.6496 145.351C89.6448 145.751 89.5422 146.145 89.3505 146.496C89.1588 146.848 88.884 147.148 88.5499 147.369L88.4579 147.427H47.0273L47.194 146.919C47.2228 146.829 50.2556 138.031 63.6819 139.73C64.9483 139.297 77.3057 135.264 84.7028 139.795C87.9847 141.806 89.6496 143.675 89.6496 145.351Z" fill="#F2F2F2"/>
</g>
</g>
</svg>
