<svg width="214" height="253" viewBox="0 0 214 253" fill="none" xmlns="http://www.w3.org/2000/svg">
<g clip-path="url(#clip0_48_551)">
<path d="M1.52991 121.006C2.31622 122.295 3.38089 123.399 4.64894 124.24C5.91698 125.081 7.35756 125.639 8.86919 125.875C10.3808 126.111 11.9267 126.019 13.398 125.605C14.8694 125.191 16.2303 124.465 17.3849 123.479L49.6592 141.644L48.4564 122.708L17.9926 108.361C16.1761 106.567 13.7523 105.49 11.1803 105.333C8.60836 105.175 6.06697 105.949 4.03773 107.508C2.0085 109.067 0.63239 111.302 0.170183 113.79C-0.292025 116.277 0.191777 118.845 1.52991 121.006Z" fill="#FFB8B8"/>
<path d="M94.967 193.774C85.3934 206.924 85.7359 228.923 88.4069 253H133.671L135.639 248.494L138.263 253H180.904C180.904 253 177.624 191.843 171.72 189.912C165.816 187.981 94.967 193.774 94.967 193.774Z" fill="#2F2E41"/>
<path d="M133.671 56.3921C146.352 56.3921 156.631 46.3044 156.631 33.8606C156.631 21.4168 146.352 11.3292 133.671 11.3292C120.991 11.3292 110.711 21.4168 110.711 33.8606C110.711 46.3044 120.991 56.3921 133.671 56.3921Z" fill="#FFB8B8"/>
<path d="M150.266 62.2379L154.756 70.683L185.812 84.2686L177.648 161.793L174.213 169.821L176.069 176.793L171.593 181.938C176.086 185.927 176.657 190.103 174.213 194.422L159.911 197.637C159.911 197.637 80.3934 204.576 87.0949 192.487C94.4172 179.278 96.2818 140.269 80.1171 119.423C66.3937 101.725 76.9297 78.7609 76.9297 78.7609L109.482 69.2142L121.455 62.2379L150.266 62.2379Z" fill="#3F3D56"/>
<path d="M143.865 0.855572C143.973 0.63155 144.146 0.444288 144.363 0.317836C144.58 0.191384 144.831 0.131514 145.083 0.145917C134.572 -0.471115 123.5 0.731164 114.706 6.4156C112.575 7.79276 110.566 9.43539 108.248 10.4344C108.139 10.4827 108.044 10.5579 107.973 10.6527C107.902 10.7475 107.857 10.8588 107.843 10.9757C107.828 11.0926 107.845 11.2111 107.891 11.3197C107.937 11.4284 108.011 11.5235 108.106 11.5958L108.361 11.7917C108.461 11.8691 108.538 11.9719 108.583 12.0892C108.628 12.2064 108.64 12.3335 108.616 12.4567C108.593 12.5798 108.535 12.6943 108.45 12.7877C108.365 12.8811 108.256 12.9498 108.133 12.9863C108.006 13.0244 107.893 13.0974 107.806 13.1967C107.72 13.296 107.664 13.4175 107.646 13.5468C107.627 13.6761 107.647 13.808 107.702 13.9267C107.757 14.0455 107.846 14.1463 107.958 14.2172L109.909 15.4548C110.008 15.516 110.089 15.6005 110.145 15.7005C110.201 15.8005 110.231 15.9127 110.232 16.027C110.233 16.1412 110.204 16.2538 110.149 16.3543C110.093 16.4549 110.013 16.5402 109.916 16.6025C109.75 16.7027 109.577 16.7891 109.397 16.8607C109.285 16.902 109.186 16.9709 109.109 17.0608C109.032 17.1507 108.979 17.2586 108.957 17.3739C108.935 17.4893 108.944 17.6084 108.982 17.7197C109.02 17.8309 109.087 17.9306 109.176 18.0091C110.021 18.7473 110.669 19.6772 111.064 20.7176C111.715 22.3772 111.831 24.1846 111.941 25.9594C112.613 23.3985 115.461 21.8911 118.152 21.7379C120.842 21.5848 123.465 22.4558 126.084 23.082C131.786 24.4418 137.708 24.6654 143.5 23.7395C141.533 27.6128 143.192 32.2327 144.862 36.2382L150.266 33.9651C157.688 29.8539 152.518 47.2451 149.743 49.6327C155.409 51.5601 170.237 30.1671 165.467 22.0523C162.986 17.831 164.747 12.3867 159.868 8.38313C157.477 5.91307 152.704 7.01092 150.266 4.95801C149.307 4.15001 150.769 1.98834 149.451 1.51723C149.013 1.36076 143.937 0.697869 143.865 0.855572Z" fill="#2F2E41"/>
<path d="M104.973 71.3953C100.76 89.7505 89.9544 132.608 78.9913 141.57C78.2961 142.215 77.4624 142.698 76.5518 142.984C38.0165 152.197 25.6691 128.697 25.6691 128.697C25.6691 128.697 35.996 123.759 36.2579 114.105L57.084 120.447L75.2385 80.3544L77.91 77.909L77.9249 77.8943L104.973 71.3953Z" fill="#3F3D56"/>
<path d="M187.137 240.897C188.24 239.856 189.098 238.59 189.649 237.189C190.2 235.788 190.431 234.285 190.326 232.786C190.221 231.288 189.783 229.83 189.042 228.516C188.301 227.202 187.275 226.063 186.037 225.18L196.84 190.242L178.305 195.638L170.888 227.988C169.514 230.128 168.987 232.687 169.408 235.182C169.828 237.677 171.167 239.934 173.17 241.525C175.172 243.116 177.701 243.931 180.275 243.816C182.849 243.7 185.291 242.661 187.137 240.897V240.897Z" fill="#FFB8B8"/>
<path d="M177.249 82.314L185.812 84.2685C185.812 84.2685 221.202 151.84 212.674 164.715C204.146 177.59 193.698 220.216 193.698 220.216C193.698 220.216 178.246 217.202 172.342 209.476L183.154 158.921L172.001 116.433L177.249 82.314Z" fill="#3F3D56"/>
<path d="M14.8093 182.655L15.1167 73.8275C15.1255 71.6248 16.0242 69.5155 17.6158 67.9623C19.2074 66.4091 21.3617 65.5389 23.6063 65.5425L107.359 65.7704C109.604 65.779 111.753 66.6609 113.336 68.2228C114.919 69.7846 115.805 71.8988 115.802 74.1014L115.494 182.929C115.486 185.132 114.587 187.241 112.995 188.794C111.404 190.347 109.249 191.218 107.005 191.214L23.2519 190.986C21.0074 190.978 18.8579 190.096 17.2752 188.534C15.6924 186.972 14.8056 184.858 14.8093 182.655V182.655Z" fill="#E6E6E6"/>
<path d="M21.3265 149.802L21.5242 79.8378C21.5323 77.775 22.374 75.7995 23.8646 74.3449C25.3551 72.8903 27.3728 72.0753 29.4749 72.0787L101.453 72.2745C103.556 72.2825 105.569 73.1085 107.051 74.5712C108.533 76.0339 109.364 78.0139 109.361 80.0768L109.087 176.919C109.079 178.981 108.237 180.957 106.746 182.412C105.256 183.866 103.238 184.681 101.136 184.678L56.5467 184.556C47.1831 184.521 38.2163 180.841 31.6135 174.326C25.0107 167.81 21.3112 158.991 21.3265 149.802V149.802Z" fill="white"/>
<path d="M93.2059 102.811H37.0811C36.188 102.811 35.3315 102.463 34.6999 101.843C34.0684 101.223 33.7136 100.383 33.7136 99.5065C33.7136 98.63 34.0684 97.7895 34.6999 97.1697C35.3315 96.55 36.188 96.2018 37.0811 96.2018H93.2059C94.099 96.2018 94.9555 96.55 95.587 97.1697C96.2186 97.7895 96.5734 98.63 96.5734 99.5065C96.5734 100.383 96.2186 101.223 95.587 101.843C94.9555 102.463 94.099 102.811 93.2059 102.811V102.811Z" fill="#00509E"/>
<path d="M49.4286 87.5731H37.0811C36.188 87.5731 35.3315 87.225 34.6999 86.6053C34.0684 85.9855 33.7136 85.145 33.7136 84.2685C33.7136 83.3921 34.0684 82.5516 34.6999 81.9318C35.3315 81.3121 36.188 80.9639 37.0811 80.9639H49.4286C50.3217 80.9639 51.1782 81.3121 51.8097 81.9318C52.4412 82.5516 52.796 83.3921 52.796 84.2685C52.796 85.145 52.4412 85.9855 51.8097 86.6053C51.1782 87.225 50.3217 87.5731 49.4286 87.5731Z" fill="#00509E"/>
<path d="M93.2059 118.049H37.0811C36.188 118.049 35.3315 117.701 34.6999 117.081C34.0684 116.461 33.7136 115.621 33.7136 114.744C33.7136 113.868 34.0684 113.027 34.6999 112.408C35.3315 111.788 36.188 111.44 37.0811 111.44H93.2059C94.099 111.44 94.9555 111.788 95.587 112.408C96.2186 113.027 96.5734 113.868 96.5734 114.744C96.5734 115.621 96.2186 116.461 95.587 117.081C94.9555 117.701 94.099 118.049 93.2059 118.049Z" fill="#00509E"/>
<path d="M93.2059 133.287H37.0811C36.188 133.287 35.3315 132.939 34.6999 132.319C34.0684 131.699 33.7136 130.859 33.7136 129.982C33.7136 129.106 34.0684 128.265 34.6999 127.646C35.3315 127.026 36.188 126.678 37.0811 126.678H93.2059C94.099 126.678 94.9555 127.026 95.587 127.646C96.2186 128.265 96.5734 129.106 96.5734 129.982C96.5734 130.859 96.2186 131.699 95.587 132.319C94.9555 132.939 94.099 133.287 93.2059 133.287V133.287Z" fill="#00509E"/>
<path d="M88.6646 173.438C96.0648 173.438 102.064 167.551 102.064 160.289C102.064 153.027 96.0648 147.14 88.6646 147.14C81.2644 147.14 75.2654 153.027 75.2654 160.289C75.2654 167.551 81.2644 173.438 88.6646 173.438Z" fill="#00509E"/>
<path d="M86.8367 167.133C86.6053 167.133 86.3771 167.08 86.1702 166.978C85.9632 166.877 85.7832 166.729 85.6444 166.547L81.9889 161.764C81.8712 161.611 81.7855 161.436 81.7367 161.25C81.6879 161.063 81.677 160.87 81.7046 160.679C81.7322 160.489 81.7977 160.306 81.8975 160.14C81.9973 159.975 82.1293 159.831 82.286 159.715C82.4427 159.6 82.621 159.516 82.8108 159.468C83.0006 159.421 83.1981 159.41 83.3919 159.438C83.5858 159.465 83.7723 159.529 83.9408 159.627C84.1092 159.726 84.2563 159.855 84.3737 160.009L86.7653 163.138L92.9077 154.097C93.0159 153.936 93.1554 153.798 93.3181 153.691C93.4808 153.583 93.6636 153.508 93.8558 153.47C94.0481 153.432 94.2461 153.432 94.4385 153.469C94.631 153.506 94.814 153.58 94.9772 153.687C95.1404 153.794 95.2805 153.931 95.3895 154.091C95.4985 154.251 95.5743 154.431 95.6124 154.62C95.6506 154.808 95.6504 155.003 95.6119 155.191C95.5734 155.38 95.4973 155.56 95.388 155.719L88.077 166.481C87.9447 166.676 87.7669 166.837 87.5583 166.95C87.3497 167.063 87.1165 167.126 86.8782 167.132C86.8643 167.132 86.8505 167.133 86.8367 167.133Z" fill="white"/>
<path d="M60.0923 40.2072C63.6052 40.2072 66.4531 37.4125 66.4531 33.9651C66.4531 30.5177 63.6052 27.7231 60.0923 27.7231C56.5793 27.7231 53.7314 30.5177 53.7314 33.9651C53.7314 37.4125 56.5793 40.2072 60.0923 40.2072Z" fill="#F2F2F2"/>
<path d="M36.894 219.757C40.407 219.757 43.2548 216.963 43.2548 213.515C43.2548 210.068 40.407 207.273 36.894 207.273C33.381 207.273 30.5332 210.068 30.5332 213.515C30.5332 216.963 33.381 219.757 36.894 219.757Z" fill="#F2F2F2"/>
<path d="M183.193 64.4409C186.706 64.4409 189.553 61.6463 189.553 58.1989C189.553 54.7515 186.706 51.9568 183.193 51.9568C179.68 51.9568 176.832 54.7515 176.832 58.1989C176.832 61.6463 179.68 64.4409 183.193 64.4409Z" fill="#F2F2F2"/>
</g>
<defs>
<clipPath id="clip0_48_551">
<rect width="214" height="253" fill="white"/>
</clipPath>
</defs>
</svg>
