<svg width="316" height="201" viewBox="0 0 316 201" fill="none" xmlns="http://www.w3.org/2000/svg">
<g clip-path="url(#clip0_48_571)">
<path d="M158.992 56.7956C158.666 58.5867 157.564 62.3677 154.003 62.2737C151.285 62.2046 149.191 59.8304 149.263 57.1107L150.288 20.0743L150.622 7.996C150.622 7.996 152.384 4.65442 154.138 19.6348V19.6901L159.011 55.2119C159.089 55.7375 159.083 56.2722 158.992 56.7956Z" fill="white"/>
<path d="M156.619 60.3915H151.387V71.5881H156.619V60.3915Z" fill="white"/>
<path d="M156.055 68.9292H152.031V73.8434H156.055V68.9292Z" fill="white"/>
<path d="M154.147 19.6929C152.315 19.1594 151.07 19.5657 150.28 20.077L150.614 7.99874C150.614 7.99874 152.376 4.65717 154.13 19.6376L154.147 19.6929Z" fill="#00509E"/>
<path d="M156.619 63.7386V71.5881H151.387V63.8934C153.047 63.1741 154.919 63.1187 156.619 63.7386Z" fill="#00509E"/>
<path d="M168.936 88.694C167.469 87.616 164.558 84.9682 166.201 81.8063C167.455 79.3934 170.505 78.5476 172.916 79.8052L205.734 96.9636L216.438 102.558C216.438 102.558 218.664 105.598 204.439 100.623L204.386 100.606L170.342 89.4126C169.838 89.2483 169.364 89.0058 168.936 88.694Z" fill="white"/>
<path d="M158.985 75.3736L156.691 80.0786L166.749 84.9869L169.042 80.2818L158.985 75.3736Z" fill="white"/>
<path d="M159.326 80.7376L161.09 77.1181L156.676 74.9638L154.912 78.5833L159.326 80.7376Z" fill="white"/>
<path d="M204.386 100.604C205.668 99.1885 205.85 97.8895 205.734 96.9636L216.438 102.558C216.438 102.558 218.664 105.598 204.439 100.623L204.386 100.604Z" fill="#00509E"/>
<path d="M163.743 83.5172L156.691 80.0761L158.983 75.3774L165.889 78.7494C165.808 80.5547 165.041 82.2606 163.743 83.5172Z" fill="#00509E"/>
<path d="M139.07 88.694C140.537 87.616 143.449 84.9682 141.805 81.8063C140.551 79.3934 137.501 78.5476 135.09 79.8052L102.272 96.9636L91.5682 102.558C91.5682 102.558 89.3418 105.598 103.567 100.623L103.62 100.606L137.664 89.4153C138.168 89.2502 138.642 89.0068 139.07 88.694Z" fill="white"/>
<path d="M149.021 75.3727L138.964 80.2809L141.257 84.986L151.315 80.0777L149.021 75.3727Z" fill="white"/>
<path d="M153.093 78.5819L151.329 74.9624L146.915 77.1167L148.679 80.7361L153.093 78.5819Z" fill="white"/>
<path d="M103.62 100.604C102.338 99.1885 102.156 97.8895 102.272 96.9636L91.5682 102.558C91.5682 102.558 89.3418 105.598 103.567 100.623L103.62 100.604Z" fill="#00509E"/>
<path d="M144.263 83.5172L151.315 80.0761L149.023 75.3774L142.117 78.7494C142.198 80.5547 142.966 82.2606 144.263 83.5172Z" fill="#00509E"/>
<path d="M158.71 198.275H148.448L151.708 77.3453H155.45L158.71 198.275Z" fill="white"/>
<path d="M154.003 79.2773C155.892 79.2773 157.423 77.7453 157.423 75.8556C157.423 73.9658 155.892 72.4338 154.003 72.4338C152.114 72.4338 150.583 73.9658 150.583 75.8556C150.583 77.7453 152.114 79.2773 154.003 79.2773Z" fill="#00509E"/>
<path d="M234.975 50.4221C234.757 51.6327 234.011 54.1893 231.603 54.1257C230.716 54.0848 229.881 53.695 229.28 53.0413C228.679 52.3875 228.36 51.5226 228.393 50.6349L229.089 25.5773L229.313 17.4071C229.313 17.4071 230.506 15.1463 231.694 25.2815V25.3175L234.989 49.3635C235.04 49.7149 235.035 50.0721 234.975 50.4221Z" fill="white"/>
<path d="M233.37 52.8515H229.832V60.4274H233.37V52.8515Z" fill="white"/>
<path d="M232.989 58.6281H230.266V61.9531H232.989V58.6281Z" fill="white"/>
<path d="M231.699 25.3202C230.459 24.9609 229.617 25.2345 229.089 25.58L229.313 17.4099C229.313 17.4099 230.506 15.149 231.694 25.2843L231.699 25.3202Z" fill="#00509E"/>
<path d="M233.37 55.1152V60.4219H229.832V55.223C230.954 54.7348 232.221 54.6963 233.37 55.1152Z" fill="#00509E"/>
<path d="M241.696 71.9999C240.704 71.273 238.732 69.482 239.845 67.3427C240.27 66.5625 240.987 65.9823 241.838 65.7286C242.689 65.4749 243.606 65.5683 244.389 65.9884L266.592 77.5968L273.832 81.3806C273.832 81.3806 275.34 83.4452 265.716 80.0705H265.68L242.646 72.5002C242.305 72.3847 241.984 72.2159 241.696 71.9999Z" fill="white"/>
<path d="M234.97 62.9899L233.419 66.1721L240.224 69.4932L241.775 66.3109L234.97 62.9899Z" fill="white"/>
<path d="M235.204 66.6203L236.398 64.1709L233.411 62.7133L232.217 65.1627L235.204 66.6203Z" fill="white"/>
<path d="M265.689 80.0595C266.556 79.1032 266.68 78.2243 266.6 77.5969L273.84 81.3807C273.84 81.3807 275.348 83.4453 265.725 80.0706L265.689 80.0595Z" fill="#00509E"/>
<path d="M238.191 68.5008L233.409 66.1708L234.959 62.9896L239.635 65.2698C239.583 66.4917 239.066 67.6475 238.191 68.5008Z" fill="#00509E"/>
<path d="M221.498 71.9999C222.49 71.273 224.462 69.482 223.349 67.3427C222.924 66.5625 222.207 65.9823 221.356 65.7286C220.505 65.4749 219.588 65.5683 218.805 65.9884L196.602 77.5968L189.362 81.3806C189.362 81.3806 187.854 83.4452 197.478 80.0705H197.514L220.548 72.5002C220.889 72.3847 221.21 72.2159 221.498 71.9999Z" fill="white"/>
<path d="M228.234 62.9911L221.429 66.3121L222.98 69.4944L229.785 66.1733L228.234 62.9911Z" fill="white"/>
<path d="M230.986 65.1607L229.792 62.7112L226.806 64.1688L227.999 66.6182L230.986 65.1607Z" fill="white"/>
<path d="M197.514 80.0595C196.646 79.1032 196.522 78.2243 196.602 77.5969L189.362 81.3807C189.362 81.3807 187.854 83.4453 197.478 80.0706L197.514 80.0595Z" fill="#00509E"/>
<path d="M225.012 68.5008L229.782 66.1708L228.233 62.9896L223.556 65.2698C223.611 66.4933 224.132 67.6493 225.012 68.5008Z" fill="#00509E"/>
<path d="M234.787 146.139L227.81 147.366L230.047 64.3245H232.58L234.787 146.139Z" fill="white"/>
<path d="M231.603 65.6318C232.881 65.6318 233.917 64.5949 233.917 63.3157C233.917 62.0365 232.881 60.9995 231.603 60.9995C230.324 60.9995 229.288 62.0365 229.288 63.3157C229.288 64.5949 230.324 65.6318 231.603 65.6318Z" fill="#00509E"/>
<path d="M76.6549 50.4221C76.4366 51.6327 75.6908 54.1893 73.2822 54.1257C72.3955 54.0848 71.561 53.6949 70.9603 53.0411C70.3596 52.3872 70.0415 51.5224 70.0752 50.6349L70.7685 25.5773L70.9923 17.4071C70.9923 17.4071 72.1856 15.1463 73.3733 25.2815V25.3175L76.6714 49.3635C76.72 49.7151 76.7144 50.0721 76.6549 50.4221Z" fill="white"/>
<path d="M75.05 52.8515H71.5116V60.4274H75.05V52.8515Z" fill="white"/>
<path d="M74.6688 58.6281H71.9452V61.9531H74.6688V58.6281Z" fill="white"/>
<path d="M73.3788 25.3202C72.1414 24.9609 71.2961 25.2345 70.7685 25.58L70.9923 17.4099C70.9923 17.4099 72.1856 15.149 73.3733 25.2843L73.3788 25.3202Z" fill="#00509E"/>
<path d="M75.05 55.1152V60.4219H71.5116V55.223C72.6337 54.7348 73.9003 54.6963 75.05 55.1152Z" fill="#00509E"/>
<path d="M83.3837 71.9999C82.392 71.273 80.4225 69.482 81.5357 67.3427C81.9606 66.5627 82.6765 65.9826 83.5273 65.7288C84.378 65.4751 85.2946 65.5684 86.0768 65.9884L108.28 77.5968L115.522 81.3806C115.522 81.3806 117.028 83.4453 107.404 80.0705H107.368L84.3366 72.5002C83.9946 72.3847 83.673 72.2159 83.3837 71.9999Z" fill="white"/>
<path d="M76.6508 62.9906L75.0996 66.1729L81.9047 69.4939L83.4558 66.3117L76.6508 62.9906Z" fill="white"/>
<path d="M76.8828 66.6195L78.0767 64.1701L75.09 62.7125L73.8961 65.1619L76.8828 66.6195Z" fill="white"/>
<path d="M107.368 80.0595C108.236 79.1032 108.36 78.2243 108.28 77.5969L115.522 81.3807C115.522 81.3807 117.028 83.4453 107.404 80.0706L107.368 80.0595Z" fill="#00509E"/>
<path d="M79.8701 68.5008L75.0997 66.1708L76.6521 62.9896L81.3258 65.2698C81.2718 66.4935 80.7508 67.65 79.8701 68.5008Z" fill="#00509E"/>
<path d="M63.1779 71.9999C64.1723 71.273 66.1418 69.482 65.0286 67.3427C64.6033 66.5625 63.8868 65.9823 63.0356 65.7286C62.1844 65.4749 61.2674 65.5683 60.4847 65.9884L38.2819 77.5968L31.042 81.3806C31.042 81.3806 29.5338 83.4452 39.1575 80.0705H39.1934L62.2277 72.5002C62.5689 72.3847 62.8896 72.2159 63.1779 71.9999Z" fill="white"/>
<path d="M69.9126 62.9902L63.1076 66.3112L64.6587 69.4935L71.4637 66.1724L69.9126 62.9902Z" fill="white"/>
<path d="M72.6678 65.1624L71.4739 62.713L68.4872 64.1705L69.6811 66.62L72.6678 65.1624Z" fill="white"/>
<path d="M39.1934 80.0595C38.3288 79.1032 38.2045 78.2243 38.2819 77.5969L31.042 81.3807C31.042 81.3807 29.5338 83.4453 39.1575 80.0706L39.1934 80.0595Z" fill="#00509E"/>
<path d="M66.6915 68.5008L71.4618 66.1708L69.9122 62.9896L65.2358 65.2698C65.2922 66.493 65.8128 67.6485 66.6915 68.5008Z" fill="#00509E"/>
<path d="M76.467 146.139H69.5228L71.7298 64.3245H74.26L76.467 146.139Z" fill="white"/>
<path d="M73.2822 65.6318C74.5606 65.6318 75.5969 64.5949 75.5969 63.3157C75.5969 62.0365 74.5606 60.9995 73.2822 60.9995C72.0038 60.9995 70.9674 62.0365 70.9674 63.3157C70.9674 64.5949 72.0038 65.6318 73.2822 65.6318Z" fill="#00509E"/>
<path d="M307.351 168.491C304.988 177.12 299.857 184.732 292.748 190.159C285.639 195.586 276.945 198.525 268.003 198.526H59.9875C50.3735 198.521 40.9492 195.849 32.7612 190.807C24.5732 185.765 17.942 178.552 13.604 169.967C13.604 169.967 43.7538 128.237 122.055 155.5C187.061 178.134 217.046 156.73 225.363 148.809C226.263 147.955 227.327 147.293 228.49 146.861C229.653 146.43 230.891 146.239 232.13 146.299C248.06 147.054 303.241 150.918 307.36 168.485L307.351 168.491Z" fill="white"/>
<path opacity="0.1" d="M57.7667 200.997C76.3661 200.997 91.4439 199.226 91.4439 197.042C91.4439 194.858 76.3661 193.087 57.7667 193.087C39.1673 193.087 24.0895 194.858 24.0895 197.042C24.0895 199.226 39.1673 200.997 57.7667 200.997Z" fill="#00509E"/>
<path d="M74.6246 193.513C74.6246 193.513 72.4397 193.256 71.0171 192.194L70.9094 192.109C70.9954 191.98 71.0581 191.836 71.0945 191.686C70.9417 191.388 70.8613 191.058 70.8597 190.724C70.8641 190.41 70.8 190.098 70.6718 189.812V188.258C70.6718 188.258 70.1995 187.755 70.1525 186.476C70.1056 185.196 70.0586 178.889 70.0586 178.889C69.9858 178.558 69.9699 178.218 70.0117 177.883C70.0586 177.153 70.0586 176.879 70.0586 176.879C69.9041 176.455 69.8557 176 69.9178 175.553C70.0586 175 69.5863 174.364 69.5863 174.364L70.2934 170.893C70.2934 170.893 70.6857 158.9 69.5448 155.285V155.263C69.5448 155.263 69.5448 155.232 69.5448 155.219C69.6415 152.886 68.2273 149.003 69.0283 146.308C69.8294 143.613 69.9233 143.016 69.9233 143.016C69.9233 143.016 66.3931 134.149 65.5037 132.049C64.8877 130.6 64.2496 129.008 63.6199 128.102C63.5646 128.023 63.5094 127.948 63.4541 127.878C63.4237 127.839 63.3934 127.801 63.363 127.767C63.5554 127.446 63.6717 127.085 63.7027 126.712C63.7524 126.059 63.6585 125.308 64.1336 124.846C64.3149 124.698 64.5101 124.567 64.7165 124.456C65.0803 124.217 65.37 123.88 65.553 123.484C65.736 123.089 65.805 122.65 65.7523 122.217C65.6529 121.529 65.2579 120.957 64.8076 120.402C64.9618 119.559 64.9003 118.69 64.6288 117.877C64.3574 117.065 63.8849 116.334 63.2552 115.753C63.2552 115.667 63.2552 115.579 63.2552 115.493C63.268 114.86 63.0741 114.24 62.7028 113.727L62.8354 113.821C62.7608 113.754 62.689 113.691 62.6116 113.627C62.5026 113.517 62.3779 113.424 62.2415 113.351C61.1941 112.635 59.9699 112.221 58.703 112.155C57.4361 112.089 56.1755 112.374 55.0597 112.978C54.501 113.277 54.021 113.704 53.6592 114.224C52.9217 115.363 53.1068 116.836 52.7256 118.13C52.3554 119.365 51.4826 120.388 50.7589 121.466C50.0352 122.544 49.4302 123.821 49.7037 125.081C49.8998 125.996 50.5517 126.817 50.5324 127.754C50.4999 128.244 50.2973 128.708 49.9594 129.066C49.6216 129.423 49.1696 129.651 48.6817 129.71H48.6568C48.5654 129.725 48.4731 129.732 48.3806 129.733C49.259 130.338 50.3501 130.562 51.419 130.703C51.3969 130.786 51.3749 130.869 51.3555 130.954C50.4909 134.218 49.7203 138.364 49.7203 138.364C49.7203 138.364 50.2368 142.565 49.154 145.857C48.0712 149.149 48.2121 155.912 48.2121 155.912C48.2121 155.912 51.2257 154.356 51.4135 155.36C51.6014 156.363 51.4135 156.639 51.4135 156.639C51.4135 156.639 52.0295 156.952 52.7532 157.228L52.7228 157.629L52.5902 159.425C52.5395 159.802 52.597 160.185 52.756 160.531C53.0156 161.034 52.756 162.405 52.756 162.405C52.756 162.405 52.535 162.543 52.756 163.184C52.977 163.825 52.582 164.737 52.582 164.737C52.582 164.737 52.3057 168.165 52.2698 168.883C52.2339 169.602 51.3279 171.672 51.3279 171.672C51.3279 171.672 52.1289 172.675 51.3279 172.814C50.5268 172.952 50.4329 174.196 50.4329 174.196C50.4329 174.196 49.491 174.972 49.491 175.246C49.491 175.246 45.2537 179.544 44.2649 186.625C44.2649 186.625 43.276 187.54 43.4168 188.408C43.4969 188.9 43.3367 189.068 43.1821 189.123C43.3561 189.146 43.5467 189.259 43.4583 189.676C43.3174 190.406 42.9417 191.962 42.9417 191.962H43.008C42.2374 192.855 41.1104 194.35 40.9391 195.663C40.9391 195.718 40.9336 195.773 40.9225 195.829L40.4972 196.788L44.2179 198.446L44.5466 197.943C44.5466 197.943 46.2039 199.817 48.0795 200.226C48.4035 200.296 48.7341 200.333 49.0656 200.334C50.1124 200.316 51.1473 200.109 52.1207 199.723C52.1207 199.723 53.4852 198.034 49.9523 197.714C49.9523 197.714 47.8834 195.337 48.0712 194.331C48.1421 193.907 48.1855 193.48 48.201 193.051C48.201 192.957 48.201 192.865 48.201 192.775L48.4414 192.811L48.4856 192.045C48.5888 191.915 48.6392 191.751 48.6264 191.586C48.6264 191.268 48.3502 191.221 48.6264 191.033C48.9026 190.845 48.9026 191.033 48.9026 190.577C48.9026 190.121 48.7148 190.257 49.1374 189.801C49.5601 189.345 49.0905 188.521 49.0905 188.521C49.0905 188.521 50.0794 187.789 50.0324 186.829C49.9854 185.87 53.1869 179.793 53.8443 179.563C54.5017 179.334 54.5514 178.145 54.5514 178.145C54.5514 178.145 55.4464 178.328 55.7281 178.145C56.0099 177.963 56.9049 176.548 56.9049 176.548C56.9049 176.548 60.4958 167.499 60.5317 164.071L60.7665 163.295C60.7665 163.295 62.1338 165.077 61.9432 166.357C61.7526 167.637 62.9873 168.549 62.9873 168.549V172.435C63.1253 173.112 63.2011 173.8 63.2138 174.491C63.1668 175.13 63.7663 175.771 63.5397 176.318C63.3132 176.866 63.5397 177.827 63.5397 177.827C63.5397 177.827 63.49 179.107 63.5397 179.472C63.5895 179.837 63.3547 184.041 64.5811 185.87C64.5811 185.87 65.0976 187.194 64.5811 188.062C64.0646 188.93 65.0507 189.801 65.0507 189.801C65.0507 189.801 64.4402 190.804 65.0507 191.536C65.4006 191.999 65.558 192.58 65.4899 193.156C65.244 194.085 65.0617 195.304 65.4733 196.152V196.171L65.5838 197.476L69.1913 197.2V196.47C69.1913 196.47 71.6552 197.125 73.9506 196.768C75.1881 196.578 76.3759 196.091 77.1023 195.052C77.1217 195.066 78.5801 192.554 74.6246 193.513Z" fill="url(#paint0_linear_48_571)"/>
<path d="M76.4532 195.088C75.7516 196.124 74.6053 196.608 73.4148 196.799C71.205 197.153 68.8212 196.5 68.8212 196.5V197.236L65.338 197.512L65.2302 196.213V196.191C64.827 195.334 65.012 194.096 65.2551 193.164C65.3719 192.725 65.5158 192.293 65.686 191.871C65.686 191.871 68.6858 189.322 69.6857 191.235C69.9027 191.631 70.2035 191.974 70.5669 192.241C71.948 193.297 74.0501 193.554 74.0501 193.554C77.862 192.587 76.4532 195.088 76.4532 195.088Z" fill="#65617D"/>
<path opacity="0.1" d="M67.1776 192.587C67.1776 192.587 67.1776 194.953 68.904 194.908C70.6304 194.864 70.8625 193.966 70.3155 193.358C69.9444 192.927 69.6237 192.455 69.3598 191.951L67.1776 192.587Z" fill="black"/>
<path d="M52.3113 199.723C51.3712 200.107 50.3681 200.313 49.3529 200.331C49.0325 200.329 48.7131 200.294 48.3999 200.226C46.5824 199.814 44.9913 197.949 44.9913 197.949L44.6737 198.452L41.0828 196.813L41.4888 195.854L41.5054 195.691C41.6711 194.383 42.7594 192.893 43.5052 192.003C43.9113 191.52 44.2179 191.216 44.2179 191.216L48.538 191.851C48.538 191.851 48.5546 192.404 48.538 193.079C48.5235 193.506 48.4811 193.931 48.411 194.353C48.2314 195.353 50.2285 197.719 50.2285 197.719C53.6288 198.045 52.3113 199.723 52.3113 199.723Z" fill="#65617D"/>
<path d="M43.671 189.159C43.5981 189.184 43.5202 189.19 43.4445 189.176C43.5185 189.158 43.5951 189.152 43.671 189.159Z" fill="#444053"/>
<path opacity="0.1" d="M48.538 191.86C48.538 191.86 48.5546 192.413 48.538 193.087L43.4555 192.258C43.4555 192.258 43.4804 192.161 43.5163 192.001C43.9223 191.517 44.229 191.213 44.229 191.213L48.538 191.86Z" fill="black"/>
<path opacity="0.1" d="M70.5586 192.23C69.7907 194.007 65.222 193.587 65.222 193.587C65.2446 193.444 65.253 193.298 65.2468 193.153C65.3636 192.714 65.5075 192.282 65.6777 191.86C65.6777 191.86 68.6775 189.311 69.6774 191.224C69.8944 191.62 70.1952 191.963 70.5586 192.23Z" fill="black"/>
<path d="M70.6332 191.724C70.1802 193.77 65.222 193.316 65.222 193.316C65.3172 192.708 65.1704 192.087 64.8132 191.586C64.222 190.859 64.8132 189.859 64.8132 189.859C64.8132 189.859 63.8574 188.994 64.3601 188.128C64.8629 187.263 64.3601 185.945 64.3601 185.945C63.1751 184.126 63.4044 179.939 63.3547 179.588C63.305 179.237 63.3547 177.952 63.3547 177.952C63.3547 177.952 63.1309 176.995 63.3547 176.448C63.5784 175.901 62.9956 175.265 63.0398 174.63C63.027 173.942 62.954 173.256 62.8216 172.581V168.712C62.8216 168.712 61.631 167.803 61.8134 166.529C61.9957 165.254 60.6753 163.488 60.6753 163.488L60.4488 164.262C60.4046 167.673 56.9491 176.68 56.9491 176.68C56.9491 176.68 56.0845 178.093 55.811 178.275C55.5376 178.458 54.6757 178.275 54.6757 178.275C54.6757 178.275 54.6288 179.458 53.9935 179.685C53.3581 179.911 50.2644 185.962 50.3114 186.918C50.3584 187.874 49.3999 188.601 49.3999 188.601C49.3999 188.601 49.8556 189.43 49.4468 189.875C49.038 190.32 49.2176 190.193 49.2176 190.649C49.2176 191.105 49.2176 190.926 48.9413 191.102C48.6651 191.279 48.9413 191.332 48.9413 191.655C48.9543 191.818 48.9049 191.98 48.8032 192.109L48.7618 192.874L43.4389 192.02C43.4389 192.02 43.8036 190.472 43.9389 189.743C44.019 189.317 43.834 189.204 43.6627 189.19C43.8146 189.135 43.9693 188.966 43.892 188.479C43.7538 187.614 44.7206 186.705 44.7206 186.705C45.6764 179.652 49.7672 175.373 49.7672 175.373C49.7672 175.097 50.676 174.328 50.676 174.328C50.676 174.328 50.7672 173.098 51.5406 172.963C52.314 172.827 51.5406 171.824 51.5406 171.824C51.5406 171.824 52.4052 169.779 52.4494 169.06C52.4936 168.342 52.7505 164.914 52.7505 164.914C52.7505 164.914 53.1316 164.005 52.919 163.369C52.7063 162.734 52.919 162.595 52.919 162.595C52.919 162.595 53.1758 161.23 52.919 160.73C52.7666 160.387 52.7112 160.01 52.7587 159.638L52.8886 157.847L53.0764 155.18C53.0764 155.18 67.2218 152.737 68.7797 154.691C68.9483 154.932 69.0727 155.202 69.1471 155.487C70.252 159.08 69.8708 171.023 69.8708 171.023L69.1885 174.48C69.1885 174.48 69.6443 175.119 69.509 175.663C69.448 176.108 69.4944 176.561 69.6443 176.984C69.6443 176.984 69.6443 177.261 69.5973 177.985C69.5576 178.319 69.5735 178.657 69.6443 178.985C69.6443 178.985 69.6885 185.262 69.7355 186.536C69.7824 187.811 70.2354 188.311 70.2354 188.311V189.859C70.3581 190.146 70.4193 190.456 70.415 190.768C70.4128 191.099 70.4875 191.427 70.6332 191.724Z" fill="#444053"/>
<path opacity="0.1" d="M49.3529 200.337C49.0325 200.335 48.7131 200.3 48.3999 200.232C46.5824 199.82 44.9913 197.954 44.9913 197.954L44.6737 198.457L41.0828 196.818L41.4888 195.854L41.5054 195.691L45.2178 197.584C45.2178 197.584 48.1817 199.004 49.3529 200.337Z" fill="black"/>
<path opacity="0.1" d="M73.4092 196.799C71.1994 197.153 68.8156 196.5 68.8156 196.5V197.236L65.3324 197.512L65.2247 196.213C66.3296 196.232 68.1057 196.252 68.8792 196.191C70.4097 196.188 71.9335 196.393 73.4092 196.799Z" fill="black"/>
<path opacity="0.1" d="M45.4499 187.987C45.6314 187.971 45.8143 187.995 45.9857 188.057C46.1651 188.164 46.3351 188.286 46.494 188.421C46.6133 188.485 46.7261 188.56 46.831 188.645C46.9636 188.775 47.0188 188.969 47.1514 189.099C47.3945 189.339 47.795 189.284 48.1182 189.4C48.1541 189.4 48.1928 189.43 48.1983 189.466C48.2038 189.502 48.1734 189.532 48.143 189.555C48.0631 189.6 47.9727 189.624 47.8806 189.624C47.7886 189.624 47.6982 189.6 47.6182 189.555C47.458 189.464 47.3103 189.352 47.179 189.223C46.9267 188.999 46.6381 188.819 46.3255 188.692C45.8974 188.524 45.1515 188.477 44.8808 188.057C45.0079 187.96 45.2841 187.99 45.4499 187.987Z" fill="black"/>
<path opacity="0.1" d="M45.0852 188.944C45.1814 188.971 45.274 189.009 45.3615 189.057L45.8283 189.292C45.4968 189.314 45.1659 189.24 44.8753 189.079C44.7721 189.037 44.6716 188.989 44.5742 188.935C44.7438 188.91 44.9166 188.913 45.0852 188.944Z" fill="black"/>
<path opacity="0.1" d="M45.7012 189.74C45.8031 189.736 45.9052 189.744 46.0051 189.765C46.1809 189.826 46.3439 189.92 46.4857 190.041C46.8263 190.316 47.2522 190.464 47.69 190.458C47.6039 190.499 47.5084 190.515 47.4138 190.505H46.436C46.1816 190.522 45.928 190.463 45.7067 190.337C45.541 190.257 44.856 190.06 44.8505 189.831C44.8449 189.602 45.5355 189.74 45.7012 189.74Z" fill="black"/>
<path opacity="0.1" d="M67.951 190.901C68.25 190.934 68.5512 190.942 68.8515 190.925C69.1678 190.917 69.4755 190.821 69.741 190.649C70.0034 190.447 69.9481 190.24 69.6139 190.226C69.3031 190.241 68.9981 190.316 68.7162 190.447C68.5704 190.506 68.4299 190.577 68.2963 190.66C68.2273 190.691 68.0008 190.903 67.951 190.901Z" fill="black"/>
<path opacity="0.1" d="M69.0394 191.398C69.0117 191.509 68.8957 191.57 68.7908 191.611C68.5337 191.708 68.2639 191.768 67.9897 191.788C67.9207 191.788 67.7273 191.788 67.7522 191.68C67.777 191.572 68.0643 191.605 68.1334 191.597C68.4395 191.551 68.7422 191.485 69.0394 191.398Z" fill="black"/>
<path opacity="0.1" d="M66.3103 191.219C66.6923 191.174 67.0785 191.251 67.4152 191.437C67.4254 191.443 67.4331 191.453 67.4373 191.465C67.4392 191.468 67.4402 191.473 67.4402 191.477C67.4402 191.481 67.4392 191.486 67.4373 191.489C67.4021 191.555 67.3482 191.61 67.2823 191.645C67.2165 191.68 67.1416 191.696 67.0671 191.688C66.9195 191.671 66.7746 191.635 66.6362 191.581C66.4061 191.506 66.1654 191.47 65.9236 191.473C65.8161 191.483 65.7079 191.483 65.6004 191.473C65.28 191.418 65.3849 191.288 65.6308 191.26C65.8564 191.234 66.0832 191.22 66.3103 191.219Z" fill="black"/>
<path opacity="0.1" d="M53.8194 173.342C53.3637 173.022 52.8234 172.845 52.2671 172.833C52.8304 172.798 53.3859 172.98 53.8194 173.342Z" fill="black"/>
<path opacity="0.1" d="M53.3941 171.506C53.8038 171.509 54.2051 171.623 54.5542 171.838L54.1343 171.722C53.8817 171.642 53.6217 171.587 53.3581 171.559C53.2062 171.545 53.0543 171.559 52.9024 171.542C52.7505 171.526 52.5571 171.498 52.3858 171.492C52.7201 171.509 53.0571 171.49 53.3941 171.506Z" fill="black"/>
<path opacity="0.1" d="M54.7614 172.38C54.8884 172.405 55.0376 172.46 55.0652 172.59C55.0652 172.512 54.1647 172.258 54.0542 172.222C53.8692 172.156 53.2753 171.896 53.1399 172.076C53.662 172.217 54.2255 172.269 54.7614 172.38Z" fill="black"/>
<path opacity="0.1" d="M56.0265 168.339C56.6236 168.138 57.1618 167.793 57.5927 167.333C57.5881 167.538 57.533 167.738 57.4322 167.917C57.3315 168.095 57.1883 168.246 57.0154 168.355C56.6652 168.568 56.2782 168.712 55.8746 168.781C55.4713 168.85 55.078 168.968 54.7034 169.132C54.5238 169.223 53.9631 169.754 53.7863 169.726C53.5626 169.693 53.9189 169.339 54.0018 169.276C54.5929 168.814 55.3414 168.61 56.0265 168.339Z" fill="black"/>
<path opacity="0.1" d="M67.1666 174.24C66.9732 174.173 64.6253 174.63 64.769 174.173C64.8574 173.897 65.6197 173.997 65.8103 174.005C66.2713 174.018 66.7281 174.097 67.1666 174.24Z" fill="black"/>
<path d="M64.6364 119.846C64.6363 121.043 64.2224 122.203 63.465 123.129C62.7076 124.055 61.6532 124.691 60.4808 124.928C59.3084 125.165 58.0901 124.989 57.0327 124.43C55.9752 123.87 55.1437 122.962 54.6792 121.859C54.2147 120.756 54.1458 119.527 54.4841 118.379C54.8225 117.231 55.5473 116.235 56.5356 115.561C57.524 114.887 58.7149 114.576 59.9065 114.68C61.098 114.785 62.2168 115.298 63.0729 116.134C63.5696 116.616 63.964 117.193 64.2327 117.831C64.5013 118.468 64.6386 119.154 64.6364 119.846Z" fill="#FBBEBE"/>
<path d="M62.131 121.982C62.131 121.982 60.4488 126.897 61.4045 127.897C62.3603 128.898 54.5376 129.489 54.5376 129.489C54.5376 129.489 57.8109 123.622 57.4932 122.165C57.1756 120.708 62.131 121.982 62.131 121.982Z" stroke="#6C63FF" stroke-miterlimit="10"/>
<path opacity="0.1" d="M69.1361 155.5C69.1361 155.619 69.1361 155.733 69.1361 155.843C69.0449 158.165 64.9071 162.85 63.9513 162.076C62.9956 161.302 56.4933 159.754 56.4933 159.754C56.4933 159.754 55.5375 158.253 54.5376 158.253C53.9699 158.204 53.4144 158.06 52.8941 157.828L53.0819 155.16C53.0819 155.16 67.2218 152.737 68.7797 154.691C68.9459 154.937 69.0666 155.211 69.1361 155.5Z" fill="black"/>
<path d="M69.1333 155.42C69.0863 156.584 68.0284 158.339 66.86 159.704C65.6915 161.07 64.4264 162.037 63.9486 161.639C63.5989 161.411 63.2197 161.231 62.8216 161.106C60.6698 160.312 56.4933 159.317 56.4933 159.317C56.4933 159.317 55.5376 157.817 54.5376 157.817C53.5377 157.817 51.629 156.816 51.629 156.816C51.629 156.816 51.8113 156.54 51.629 155.542C51.4467 154.544 48.538 156.095 48.538 156.095C48.538 156.095 48.3999 149.362 49.4468 146.084C50.4937 142.806 49.9993 138.621 49.9993 138.621C49.9993 138.621 50.7478 134.497 51.5599 131.239C52.0488 129.285 52.5626 127.646 52.9549 127.386C54.0017 126.703 59.4572 127.386 59.4572 127.386C59.4572 127.386 61.7305 127.43 62.5951 127.662C62.8636 127.767 63.0925 127.954 63.2497 128.196C63.3022 128.268 63.3574 128.342 63.4099 128.422C64.0176 129.334 64.6364 130.91 65.2302 132.35C66.0948 134.442 69.5062 143.267 69.5062 143.267C69.5062 143.267 69.415 143.859 68.6416 146.543C67.8682 149.226 69.2244 153.101 69.1333 155.42Z" fill="#65617D"/>
<path d="M65.222 158.104L66.86 159.702C66.86 159.702 68.3599 164.881 66.4042 164.428C64.4485 163.975 62.8133 161.111 62.8133 161.111L65.222 158.104Z" fill="#FBBEBE"/>
<path opacity="0.1" d="M69.3598 143.682C65.4927 143.638 64.4955 138.223 64.4955 138.223C64.4955 138.223 64.2193 132.856 63.7221 131.866C63.4458 131.313 63.3215 129.954 63.2663 128.848C63.874 129.76 64.49 131.336 65.0866 132.776C65.9512 134.857 69.3598 143.682 69.3598 143.682Z" fill="black"/>
<path d="M69.4979 143.273C65.6308 143.229 64.6364 137.811 64.6364 137.811C64.6364 137.811 64.3601 132.444 63.8629 131.454C63.5867 130.902 63.4624 129.542 63.4072 128.436C64.0149 129.348 64.6336 130.924 65.2275 132.364C66.0865 134.448 69.4979 143.273 69.4979 143.273Z" fill="#65617D"/>
<path opacity="0.1" d="M62.5757 129.918C62.5757 129.918 61.4377 126.825 59.5732 129.918C57.7087 133.01 57.6645 136.924 57.6645 136.924L57.3468 145.476C57.3468 145.476 57.9379 146.614 57.9158 147.25C57.8937 147.886 59.0207 149.707 59.0207 149.707C59.0207 149.707 59.297 153.3 60.3383 153.892L61.3383 156.849C61.3383 156.849 61.3852 158.806 62.0675 159.58C62.7498 160.354 62.3907 161.548 62.3907 161.548L66.4318 160.133C66.4318 160.133 65.976 160.296 66.4318 159.074C66.8876 157.853 66.1556 156.258 66.1556 156.258C66.1556 156.258 63.5646 150.617 63.247 149.799C62.9293 148.98 62.4735 148.024 62.6558 147.068C62.8381 146.111 62.6917 135.968 62.9321 134.423C63.1724 132.878 62.5757 129.918 62.5757 129.918Z" fill="black"/>
<path d="M62.9956 129.489C62.9956 129.489 61.8575 126.397 59.993 129.489C58.1285 132.582 58.0843 136.496 58.0843 136.496L57.7667 145.047C57.7667 145.047 58.3578 146.186 58.3357 146.822C58.3136 147.458 59.4406 149.279 59.4406 149.279C59.4406 149.279 59.7168 152.872 60.7582 153.463L61.7581 156.421C61.7581 156.421 61.8051 158.378 62.4873 159.152C63.1696 159.926 62.8133 161.12 62.8133 161.12L66.8517 159.702C66.8517 159.702 66.3959 159.867 66.8517 158.646C67.3074 157.424 66.5754 155.829 66.5754 155.829C66.5754 155.829 63.9845 150.188 63.6668 149.37C63.3491 148.552 62.8934 147.596 63.0757 146.639C63.258 145.683 63.1144 135.54 63.3519 133.992C63.5895 132.444 62.9956 129.489 62.9956 129.489Z" fill="#444053"/>
<path opacity="0.1" d="M63.0729 156.241C63.2449 156.262 63.412 156.311 63.5674 156.388C63.6917 156.454 63.7994 156.551 63.9209 156.62C64.0636 156.7 64.224 156.744 64.3878 156.747C64.2054 156.747 64.0231 156.766 63.8353 156.769C63.7223 156.775 63.6092 156.761 63.5011 156.728C63.4018 156.677 63.309 156.615 63.2249 156.543C63.1141 156.46 62.9923 156.393 62.863 156.343C62.7663 156.302 62.6614 156.288 62.6199 156.189C62.7721 156.194 62.9236 156.211 63.0729 156.241Z" fill="black"/>
<path opacity="0.1" d="M64.6115 157.463C64.7828 157.463 64.954 157.424 65.128 157.413C65.3782 157.404 65.6287 157.417 65.8766 157.452C65.5112 157.635 65.1005 157.708 64.6944 157.662C64.5775 157.631 64.4549 157.631 64.338 157.662C64.211 157.714 63.8436 158.132 63.8105 157.761C63.7773 157.391 64.4016 157.471 64.6115 157.463Z" fill="black"/>
<path opacity="0.1" d="M62.5205 114.387L61.8741 113.906C61.9449 113.931 62.0133 113.961 62.0785 113.998C62.2163 114.074 62.3412 114.172 62.4487 114.288C62.5205 114.349 62.5923 114.415 62.6614 114.478L62.5205 114.387Z" fill="black"/>
<path opacity="0.1" d="M63.2552 128.201C63.1367 128.473 62.9455 128.706 62.7028 128.876C62.5576 128.975 62.3911 129.04 62.2166 129.064C61.969 129.086 61.7194 129.06 61.4819 128.986C61.1799 128.91 60.8821 128.817 60.5897 128.71C60.0181 128.474 59.4323 128.275 58.8357 128.113C57.9269 127.906 56.869 127.98 56.2171 128.644C55.6453 129.227 55.5044 130.133 54.9326 130.716C54.1675 131.496 52.9134 131.449 51.8279 131.297L51.5737 131.261C52.0627 129.307 52.5764 127.668 52.9687 127.408C54.0156 126.725 59.471 127.408 59.471 127.408C59.471 127.408 61.7443 127.452 62.6089 127.684C62.8721 127.787 63.0976 127.967 63.2552 128.201Z" fill="black"/>
<path opacity="0.1" d="M54.2669 119.846C54.2668 118.826 54.5675 117.828 55.1312 116.979C55.6949 116.129 56.4966 115.464 57.436 115.068C58.3755 114.671 59.4108 114.561 60.4125 114.751C61.4142 114.941 62.3377 115.422 63.0674 116.134C63.084 117.038 62.8879 117.964 63.142 118.834C63.3768 119.644 63.9707 120.297 64.5065 120.971C64.2288 122.217 63.5015 123.316 62.4639 124.059C61.4264 124.802 60.1515 125.136 58.8833 124.996C57.6152 124.857 56.443 124.254 55.5912 123.304C54.7394 122.354 54.2679 121.123 54.2669 119.846Z" fill="black"/>
<path d="M62.6476 114.208C61.6418 113.295 60.3748 112.723 59.0259 112.571C57.677 112.419 56.3146 112.696 55.1315 113.362C54.5879 113.662 54.1238 114.087 53.778 114.603C53.0654 115.739 53.2477 117.204 52.8748 118.492C52.5212 119.722 51.6759 120.739 50.9771 121.808C50.2783 122.878 49.6954 124.155 49.9578 125.401C50.1484 126.314 50.7865 127.132 50.7644 128.063C50.739 128.581 50.5193 129.071 50.1492 129.435C49.7792 129.799 49.2858 130.009 48.7673 130.025C49.6457 130.647 50.7423 130.855 51.8058 131.007C52.8692 131.159 54.1426 131.206 54.9105 130.423C55.4823 129.843 55.6232 128.934 56.195 128.353C56.8469 127.687 57.9048 127.613 58.8136 127.823C59.7223 128.033 60.5593 128.472 61.4598 128.707C61.6977 128.779 61.9471 128.804 62.1945 128.782C62.9707 128.677 63.421 127.814 63.4818 127.035C63.5315 126.385 63.4375 125.636 63.8988 125.178C64.0701 125.03 64.2551 124.9 64.4513 124.788C64.8053 124.543 65.0855 124.206 65.2613 123.814C65.4371 123.421 65.5019 122.987 65.4485 122.56C65.2358 121.018 63.5674 120.056 63.1309 118.561C62.8768 117.693 63.0729 116.767 63.0564 115.863C63.0398 114.959 62.7 113.928 61.8493 113.624" fill="#444053"/>
<path opacity="0.1" d="M65.3766 122.568C65.1612 121.026 63.4928 120.064 63.0564 118.569C62.8022 117.701 62.9984 116.775 62.9845 115.871C62.9918 115.242 62.7983 114.626 62.4321 114.114L62.5592 114.208C62.491 114.141 62.4192 114.078 62.3437 114.017C62.24 113.907 62.1198 113.814 61.9874 113.741C61.91 113.682 61.8299 113.63 61.7526 113.577L61.8769 113.691L61.7498 113.597C62.1164 114.109 62.3099 114.725 62.3023 115.355C62.3023 116.256 62.12 117.184 62.3741 118.052C62.8105 119.547 64.4789 120.509 64.6944 122.052C64.7469 122.479 64.6814 122.912 64.5051 123.305C64.3289 123.698 64.0485 124.035 63.6944 124.279C63.498 124.391 63.313 124.521 63.142 124.669C62.6835 125.128 62.7746 125.877 62.7249 126.526C62.6641 127.306 62.2139 128.168 61.4405 128.273C61.1921 128.295 60.9418 128.27 60.7029 128.199C59.8024 127.964 58.9655 127.521 58.0567 127.314C57.1479 127.107 56.0928 127.179 55.4381 127.845C54.8663 128.425 54.7255 129.332 54.1537 129.915C53.3885 130.697 52.1345 130.647 51.0517 130.498C50.3397 130.417 49.6392 130.256 48.9634 130.017C48.8721 130.032 48.7797 130.039 48.6872 130.039C49.5656 130.661 50.6622 130.868 51.7257 131.02C52.7891 131.172 54.0625 131.219 54.8277 130.437C55.3994 129.857 55.5403 128.948 56.1121 128.367C56.7667 127.701 57.8247 127.626 58.7307 127.836C59.6367 128.047 60.4764 128.486 61.3769 128.721C61.6158 128.792 61.8661 128.818 62.1144 128.796C62.8879 128.691 63.3381 127.828 63.3989 127.049C63.4486 126.399 63.3575 125.65 63.816 125.191C63.9877 125.045 64.1726 124.914 64.3684 124.802C64.7251 124.558 65.0079 124.221 65.1857 123.827C65.3636 123.433 65.4296 122.997 65.3766 122.568Z" fill="black"/>
</g>
<defs>
<linearGradient id="paint0_linear_48_571" x1="58.9379" y1="200.337" x2="58.9379" y2="112.135" gradientUnits="userSpaceOnUse">
<stop stop-color="#808080" stop-opacity="0.25"/>
<stop offset="0.54" stop-color="#808080" stop-opacity="0.12"/>
<stop offset="1" stop-color="#808080" stop-opacity="0.1"/>
</linearGradient>
<clipPath id="clip0_48_571">
<rect width="316" height="201" fill="white"/>
</clipPath>
</defs>
</svg>
