<svg xmlns="http://www.w3.org/2000/svg" width="149" height="55" viewBox="0 0 149 55" version="1.1"><g stroke="none" stroke-width="1" fill="none" fill-rule="evenodd"><g transform="translate(-130.000000, -74.000000)"><g transform="translate(130.000000, 74.000000)"><path d="M5.7 13.2L5.7 7.3C5.7 6.8 5.6 6.3 5.4 6 5.2 5.7 4.8 5.6 4.2 5.6 3.9 5.6 3.6 5.6 3.3 5.8 3.1 6 2.9 6.2 2.7 6.4 2.6 6.7 2.4 7 2.4 7.3 2.3 7.6 2.3 7.9 2.3 8.2L2.3 13.2 0 13.2 0 0 2.3 0 2.3 4.7C2.5 4.3 2.9 4 3.4 3.8 3.8 3.6 4.3 3.5 4.8 3.5 5.3 3.5 5.8 3.5 6.2 3.7 6.6 3.9 6.9 4.1 7.2 4.4 7.4 4.7 7.6 5.1 7.8 5.5 7.9 5.9 8 6.4 8 6.9L8 13.2 5.7 13.2Z" fill="#FFFFFF"/><path d="M16.4 7.5C16.4 6.8 16.2 6.2 15.8 5.8 15.6 5.7 15.4 5.5 15.2 5.4 15 5.3 14.7 5.3 14.4 5.3 14 5.3 13.7 5.3 13.4 5.5 13.2 5.6 13 5.8 12.8 6 12.6 6.2 12.5 6.4 12.4 6.7 12.4 6.9 12.3 7.2 12.3 7.5L16.4 7.5ZM18.6 8.5C18.6 8.6 18.6 8.7 18.6 8.8L18.6 9.2 12.3 9.2C12.3 9.5 12.4 9.9 12.5 10.2 12.6 10.5 12.8 10.8 13 11 13.2 11.2 13.4 11.3 13.6 11.4 13.8 11.5 14.1 11.6 14.4 11.6 14.7 11.6 15 11.6 15.2 11.5 15.4 11.4 15.6 11.3 15.8 11.1 16 10.9 16.1 10.7 16.2 10.3L18.4 10.3C18.4 10.6 18.3 10.9 18.1 11.3 17.9 11.6 17.8 11.9 17.6 12.1 17.2 12.6 16.7 12.9 16.2 13.1 15.6 13.3 15 13.4 14.4 13.4 13.8 13.4 13.2 13.3 12.7 13.1 12.3 12.9 11.8 12.6 11.5 12.3 11 11.8 10.6 11.2 10.4 10.6 10.2 9.9 10 9.2 10 8.5 10 7.7 10.1 7 10.4 6.3 10.6 5.7 10.9 5.1 11.4 4.7 11.7 4.3 12.2 4 12.7 3.8 13.2 3.6 13.7 3.5 14.4 3.5 15.1 3.5 15.7 3.6 16.3 3.9 16.9 4.2 17.4 4.6 17.8 5.2 18.2 5.7 18.4 6.3 18.5 6.8 18.6 7.3 18.7 7.9 18.6 8.5L18.6 8.5Z" fill="#FFFFFF"/><path d="M26 13.1C25.3 13.2 24.7 13.3 24 13.3 23.1 13.3 22.4 13.1 21.9 12.5 21.4 12 21.2 11.3 21.2 10.4L21.2 5.6 19.5 5.6 19.5 3.7 21.2 3.7 21.2 1.3 23.5 0.7 23.5 3.7 25.8 3.7 25.8 5.6 23.5 5.6 23.5 10.2C23.5 10.6 23.5 10.8 23.7 11 23.9 11.2 24.1 11.2 24.5 11.2 24.7 11.2 25 11.2 25.2 11.2 25.4 11.2 25.6 11.2 26 11.1L26 13.1Z" fill="#FFFFFF"/><path d="M39.9 10.2C39.9 10.7 39.9 11.1 39.7 11.5 39.6 11.8 39.4 12.1 39.1 12.3 38.7 12.7 38.3 13 37.7 13.2 37.2 13.3 36.5 13.4 35.9 13.4 35.3 13.4 34.7 13.3 34.2 13.2 33.7 13 33.2 12.7 32.9 12.3 32.6 12.1 32.4 11.7 32.2 11.4 32 11 31.9 10.6 31.9 10.1L34 10.1C34 10.3 34 10.5 34.1 10.7 34.2 10.9 34.3 11.1 34.5 11.2 34.7 11.4 34.9 11.5 35.1 11.6 35.3 11.6 35.6 11.7 35.9 11.7 36.1 11.7 36.3 11.6 36.5 11.6 36.8 11.6 37 11.5 37.2 11.4 37.4 11.4 37.5 11.2 37.6 11.1 37.8 10.9 37.8 10.7 37.8 10.4 37.8 10.2 37.7 9.9 37.6 9.8 37.4 9.6 37.2 9.5 36.9 9.4 36.5 9.4 36 9.3 35.6 9.3 35.1 9.2 34.7 9.2 34.3 9.1 34 9 33.7 8.9 33.4 8.7 33.2 8.6 32.9 8.4 32.7 8.2 32.5 7.9 32.4 7.7 32.3 7.4 32.2 7.1 32.1 6.8 32.1 6.5 32.1 6.1 32.2 5.6 32.4 5.3 32.6 4.9 32.8 4.6 33.1 4.4 33.4 4.1 33.9 3.9 34.3 3.7 34.8 3.5 35.4 3.5 36 3.5 36.5 3.5 37.1 3.5 37.6 3.7 38.1 3.9 38.5 4.2 38.9 4.6 39.2 4.8 39.4 5.2 39.5 5.5 39.7 5.8 39.7 6.2 39.7 6.5L37.6 6.5C37.6 6.3 37.5 6.2 37.5 6 37.4 5.9 37.3 5.7 37.2 5.6 37.1 5.5 36.9 5.4 36.7 5.3 36.4 5.2 36.2 5.2 36 5.2 35.8 5.2 35.6 5.2 35.5 5.2 35.3 5.2 35.2 5.3 35 5.3 34.8 5.4 34.6 5.5 34.5 5.7 34.3 5.9 34.3 6.1 34.3 6.3 34.3 6.7 34.4 6.9 34.6 7 34.9 7.2 35.1 7.3 35.4 7.3 35.6 7.3 35.8 7.3 35.9 7.4 36 7.4 36.2 7.4 36.3 7.4 36.5 7.4 36.6 7.4 36.8 7.5 36.9 7.5 37.1 7.5 37.4 7.6 38.1 7.7 38.7 8 39.2 8.4 39.7 8.9 39.9 9.5 39.9 10.2" fill="#FFFFFF"/><path d="M49.6 9.8C49.6 10.2 49.5 10.6 49.4 10.9 49.3 11.3 49.1 11.6 48.9 11.9 48.6 12.3 48.1 12.7 47.6 13 47 13.2 46.4 13.4 45.7 13.4 45 13.4 44.3 13.2 43.8 12.9 43.2 12.6 42.7 12.3 42.4 11.9 42.1 11.4 41.8 10.9 41.6 10.3 41.5 9.8 41.4 9.1 41.4 8.4 41.4 7.7 41.5 7.1 41.6 6.5 41.8 5.9 42.1 5.4 42.4 5 42.7 4.5 43.2 4.2 43.8 3.9 44.3 3.6 45 3.5 45.7 3.5 46.4 3.5 47 3.6 47.6 3.9 48.1 4.2 48.6 4.5 48.9 5 49.1 5.2 49.3 5.6 49.4 5.9 49.5 6.3 49.6 6.6 49.6 7L47.4 7C47.4 6.8 47.4 6.7 47.3 6.5 47.3 6.4 47.2 6.3 47.1 6.1 47 5.9 46.8 5.8 46.6 5.6 46.3 5.5 46 5.4 45.7 5.4 45.4 5.4 45.1 5.5 44.9 5.6 44.7 5.7 44.5 5.9 44.3 6 44 6.3 43.9 6.7 43.8 7.1 43.7 7.5 43.7 8 43.7 8.4 43.7 8.9 43.7 9.3 43.8 9.7 43.9 10.1 44 10.5 44.3 10.8 44.5 11 44.7 11.1 44.9 11.2 45.1 11.3 45.4 11.4 45.7 11.4 46 11.4 46.3 11.3 46.6 11.2 46.8 11.1 47 10.9 47.1 10.7 47.2 10.6 47.3 10.4 47.3 10.3 47.4 10.2 47.4 10 47.4 9.8L49.6 9.8Z" fill="#FFFFFF"/><path d="M57.3 13.2L57.3 7.3C57.3 6.8 57.2 6.3 57 6 56.7 5.7 56.3 5.6 55.7 5.6 55.4 5.6 55.1 5.6 54.9 5.8 54.6 6 54.4 6.2 54.3 6.4 54.1 6.7 54 7 53.9 7.3 53.8 7.6 53.8 7.9 53.8 8.2L53.8 13.2 51.5 13.2 51.5 0 53.8 0 53.8 4.7C54.1 4.3 54.5 4 54.9 3.8 55.4 3.6 55.9 3.5 56.4 3.5 56.9 3.5 57.3 3.5 57.7 3.7 58.1 3.9 58.4 4.1 58.7 4.4 59 4.7 59.2 5.1 59.3 5.5 59.5 5.9 59.5 6.4 59.5 6.9L59.5 13.2 57.3 13.2Z" fill="#FFFFFF"/><path d="M67.9 7.5C67.9 6.8 67.7 6.2 67.3 5.8 67.2 5.7 67 5.5 66.7 5.4 66.5 5.3 66.2 5.3 65.9 5.3 65.6 5.3 65.3 5.3 65 5.5 64.7 5.6 64.5 5.8 64.3 6 64.2 6.2 64 6.4 64 6.7 63.9 6.9 63.9 7.2 63.8 7.5L67.9 7.5ZM70.2 8.5C70.2 8.6 70.2 8.7 70.2 8.8L70.2 9.2 63.9 9.2C63.9 9.5 63.9 9.9 64 10.2 64.2 10.5 64.3 10.8 64.6 11 64.7 11.2 64.9 11.3 65.1 11.4 65.4 11.5 65.6 11.6 65.9 11.6 66.3 11.6 66.5 11.6 66.7 11.5 67 11.4 67.1 11.3 67.3 11.1 67.5 10.9 67.7 10.7 67.8 10.3L69.9 10.3C69.9 10.6 69.8 10.9 69.7 11.3 69.5 11.6 69.3 11.9 69.1 12.1 68.7 12.6 68.3 12.9 67.7 13.1 67.2 13.3 66.6 13.4 66 13.4 65.3 13.4 64.8 13.3 64.3 13.1 63.8 12.9 63.4 12.6 63 12.3 62.5 11.8 62.2 11.2 61.9 10.6 61.7 9.9 61.6 9.2 61.6 8.5 61.6 7.7 61.7 7 61.9 6.3 62.1 5.7 62.5 5.1 62.9 4.7 63.3 4.3 63.7 4 64.2 3.8 64.7 3.6 65.3 3.5 65.9 3.5 66.6 3.5 67.3 3.6 67.9 3.9 68.5 4.2 69 4.6 69.4 5.2 69.7 5.7 69.9 6.3 70 6.8 70.2 7.3 70.2 7.9 70.2 8.5L70.2 8.5Z" fill="#FFFFFF"/><path d="M78 7.5C78 6.8 77.8 6.2 77.4 5.8 77.2 5.7 77 5.5 76.8 5.4 76.6 5.3 76.3 5.3 76 5.3 75.6 5.3 75.3 5.3 75.1 5.5 74.8 5.6 74.6 5.8 74.4 6 74.2 6.2 74.1 6.4 74 6.7 74 6.9 73.9 7.2 73.9 7.5L78 7.5ZM80.2 8.5C80.2 8.6 80.2 8.7 80.2 8.8L80.2 9.2 73.9 9.2C73.9 9.5 74 9.9 74.1 10.2 74.2 10.5 74.4 10.8 74.6 11 74.8 11.2 75 11.3 75.2 11.4 75.4 11.5 75.7 11.6 76 11.6 76.3 11.6 76.6 11.6 76.8 11.5 77 11.4 77.2 11.3 77.4 11.1 77.6 10.9 77.7 10.7 77.8 10.3L80 10.3C80 10.6 79.9 10.9 79.7 11.3 79.6 11.6 79.4 11.9 79.2 12.1 78.8 12.6 78.3 12.9 77.8 13.1 77.2 13.3 76.6 13.4 76 13.4 75.4 13.4 74.8 13.3 74.4 13.1 73.9 12.9 73.5 12.6 73.1 12.3 72.6 11.8 72.3 11.2 72 10.6 71.8 9.9 71.6 9.2 71.6 8.5 71.6 7.7 71.7 7 72 6.3 72.2 5.7 72.5 5.1 73 4.7 73.3 4.3 73.8 4 74.3 3.8 74.8 3.6 75.3 3.5 76 3.5 76.7 3.5 77.3 3.6 77.9 3.9 78.5 4.2 79 4.6 79.4 5.2 79.8 5.7 80 6.3 80.1 6.8 80.2 7.3 80.3 7.9 80.2 8.5L80.2 8.5Z" fill="#FFFFFF"/><path d="M88.7 8.5C88.7 8 88.7 7.6 88.6 7.2 88.5 6.8 88.4 6.5 88.1 6.1 88 5.9 87.8 5.8 87.5 5.6 87.3 5.5 87 5.4 86.6 5.4 86.2 5.4 85.8 5.5 85.5 5.7 85.3 5.9 85.1 6.1 84.9 6.4 84.7 6.7 84.6 7 84.6 7.4 84.5 7.8 84.5 8.1 84.5 8.5 84.5 8.8 84.5 9.1 84.6 9.5 84.6 9.9 84.7 10.2 84.9 10.5 85.1 10.8 85.3 11 85.5 11.2 85.8 11.4 86.2 11.5 86.6 11.5 87 11.5 87.3 11.4 87.5 11.3 87.8 11.1 88 11 88.1 10.8 88.4 10.4 88.5 10.1 88.6 9.7 88.7 9.3 88.7 8.9 88.7 8.5M91 8.4C91 9.4 90.9 10.2 90.6 10.9 90.3 11.6 89.9 12.2 89.4 12.7 89.1 12.9 88.7 13.1 88.4 13.2 88 13.4 87.5 13.4 87.1 13.4 86.5 13.4 86 13.3 85.6 13.2 85.1 13 84.8 12.8 84.6 12.5L84.6 16.8 82.3 16.8 82.3 3.7 84.3 3.7 84.4 4.7C84.7 4.3 85.1 4 85.6 3.8 86.1 3.6 86.6 3.5 87.1 3.5 87.6 3.5 88 3.5 88.4 3.7 88.7 3.8 89.1 4 89.4 4.3 89.9 4.7 90.3 5.3 90.6 6 90.9 6.7 91 7.5 91 8.4" fill="#FFFFFF"/><polygon fill="#FFFFFF" points="97.6 13.2 95.2 13.2 91.7 3.7 94.1 3.7 96.4 10.4 98.7 3.7 101 3.7"/><path d="M107.6 9L105.2 9.2C104.8 9.2 104.5 9.3 104.2 9.5 104 9.7 103.8 10 103.8 10.4 103.8 10.8 104 11 104.2 11.3 104.5 11.5 104.8 11.6 105.2 11.6 105.9 11.6 106.5 11.4 106.9 11 107.3 10.7 107.6 10.1 107.6 9.4L107.6 9ZM110.6 13.1C110.4 13.2 110.2 13.2 110.1 13.3 110 13.3 109.7 13.3 109.5 13.3 109 13.3 108.6 13.2 108.3 12.9 108.1 12.7 107.9 12.4 107.9 12 107.7 12.4 107.3 12.7 106.8 13 106.3 13.3 105.7 13.4 105 13.4 104.5 13.4 104 13.3 103.5 13.2 103.1 13 102.8 12.8 102.5 12.5 102.2 12.2 102 11.9 101.8 11.6 101.7 11.2 101.6 10.8 101.6 10.4 101.6 10 101.7 9.6 101.9 9.2 102 8.9 102.3 8.6 102.5 8.3 102.8 8.1 103.2 7.9 103.6 7.7 103.9 7.6 104.4 7.5 104.8 7.5L107.6 7.3 107.6 6.7C107.6 6.2 107.5 5.9 107.3 5.6 107 5.3 106.6 5.2 106 5.2 105.5 5.2 105 5.3 104.7 5.5 104.4 5.8 104.3 6.1 104.3 6.5L102.1 6.5C102.1 6 102.2 5.5 102.4 5.2 102.7 4.8 102.9 4.4 103.3 4.2 103.6 3.9 104 3.8 104.5 3.6 105 3.5 105.5 3.5 106 3.5 106.8 3.5 107.5 3.6 108.1 3.9 108.8 4.2 109.2 4.7 109.5 5.4 109.6 5.7 109.7 6 109.7 6.3 109.8 6.7 109.8 7 109.8 7.3L109.8 10.8C109.8 11.1 109.8 11.2 109.9 11.3 110 11.4 110.1 11.4 110.3 11.4 110.4 11.4 110.5 11.4 110.5 11.4 110.5 11.4 110.6 11.4 110.6 11.4L110.6 13.1Z" fill="#FFFFFF"/><path d="M117.7 9L115.3 9.2C115 9.2 114.7 9.3 114.4 9.5 114.1 9.7 114 10 114 10.4 114 10.8 114.1 11 114.4 11.3 114.7 11.5 115 11.6 115.3 11.6 116 11.6 116.6 11.4 117.1 11 117.5 10.7 117.7 10.1 117.7 9.4L117.7 9ZM120.7 13.1C120.5 13.2 120.4 13.2 120.2 13.3 120.1 13.3 119.9 13.3 119.6 13.3 119.1 13.3 118.7 13.2 118.5 12.9 118.2 12.7 118.1 12.4 118 12 117.8 12.4 117.5 12.7 116.9 13 116.4 13.3 115.9 13.4 115.2 13.4 114.6 13.4 114.1 13.3 113.7 13.2 113.3 13 112.9 12.8 112.6 12.5 112.4 12.2 112.1 11.9 112 11.6 111.9 11.2 111.8 10.8 111.8 10.4 111.8 10 111.9 9.6 112 9.2 112.2 8.9 112.4 8.6 112.7 8.3 113 8.1 113.3 7.9 113.7 7.7 114.1 7.6 114.5 7.5 115 7.5L117.7 7.3 117.7 6.7C117.7 6.2 117.6 5.9 117.4 5.6 117.2 5.3 116.8 5.2 116.1 5.2 115.6 5.2 115.2 5.3 114.9 5.5 114.6 5.8 114.4 6.1 114.4 6.5L112.2 6.5C112.3 6 112.4 5.5 112.6 5.2 112.8 4.8 113.1 4.4 113.4 4.2 113.8 3.9 114.2 3.8 114.7 3.6 115.1 3.5 115.6 3.5 116.1 3.5 116.9 3.5 117.7 3.6 118.3 3.9 118.9 4.2 119.4 4.7 119.7 5.4 119.8 5.7 119.9 6 119.9 6.3 119.9 6.7 119.9 7 119.9 7.3L119.9 10.8C119.9 11.1 120 11.2 120 11.3 120.1 11.4 120.3 11.4 120.5 11.4 120.5 11.4 120.6 11.4 120.7 11.4 120.7 11.4 120.7 11.4 120.7 11.4L120.7 13.1Z" fill="#FFFFFF"/><path d="M128.2 5.8C127.9 5.7 127.7 5.7 127.4 5.7 126.6 5.7 126 6 125.6 6.5 125.2 7 125 7.6 125 8.4L125 13.2 122.7 13.2 122.7 3.7 124.6 3.7 124.8 5.1C125.1 4.6 125.4 4.2 125.9 3.9 126.4 3.7 126.9 3.6 127.5 3.6 127.7 3.6 128 3.6 128.2 3.6L128.2 5.8Z" fill="#FFFFFF"/><path d="M135.3 13.1C134.7 13.2 134 13.3 133.4 13.3 132.5 13.3 131.7 13.1 131.3 12.5 130.8 12 130.6 11.3 130.6 10.4L130.6 5.6 128.9 5.6 128.9 3.7 130.6 3.7 130.6 1.3 132.8 0.7 132.8 3.7 135.2 3.7 135.2 5.6 132.8 5.6 132.8 10.2C132.8 10.6 132.9 10.8 133.1 11 133.3 11.2 133.5 11.2 133.9 11.2 134.1 11.2 134.3 11.2 134.6 11.2 134.8 11.2 135 11.2 135.3 11.1L135.3 13.1Z" fill="#FFFFFF"/><path d="M5.7 33.9L5.7 28.1C5.7 27.6 5.6 27.1 5.4 26.8 5.2 26.5 4.8 26.3 4.2 26.3 3.8 26.3 3.5 26.5 3.2 26.7 2.9 26.9 2.7 27.2 2.6 27.6 2.4 27.9 2.3 28.3 2.3 28.8 2.3 29.3 2.3 29.7 2.3 30.1L2.3 33.9 0 33.9 0 24.4 1.9 24.4 2.1 25.7C2.3 25.2 2.7 24.8 3.2 24.6 3.8 24.3 4.3 24.2 4.8 24.2 5.3 24.2 5.8 24.3 6.2 24.5 6.6 24.6 6.9 24.9 7.2 25.2 7.4 25.5 7.6 25.8 7.8 26.2 7.9 26.7 8 27.1 8 27.6L8 33.9 5.7 33.9Z" fill="#009DFF"/><path d="M15.8 29.7L13.5 29.9C13.1 29.9 12.8 30.1 12.5 30.3 12.2 30.5 12.1 30.8 12.1 31.2 12.1 31.5 12.2 31.8 12.5 32 12.8 32.2 13.1 32.3 13.4 32.3 14.2 32.3 14.7 32.2 15.2 31.8 15.6 31.4 15.8 30.9 15.8 30.2L15.8 29.7ZM18.9 33.8C18.7 33.9 18.5 34 18.4 34 18.2 34.1 18 34.1 17.7 34.1 17.2 34.1 16.9 34 16.6 33.7 16.3 33.4 16.2 33.1 16.2 32.8 15.9 33.2 15.6 33.5 15.1 33.8 14.6 34 14 34.2 13.3 34.2 12.7 34.2 12.2 34.1 11.8 33.9 11.4 33.8 11 33.6 10.8 33.3 10.5 33 10.3 32.7 10.1 32.3 10 32 9.9 31.6 9.9 31.2 9.9 30.8 10 30.4 10.1 30 10.3 29.6 10.5 29.3 10.8 29.1 11.1 28.8 11.4 28.6 11.8 28.5 12.2 28.4 12.6 28.3 13.1 28.2L15.8 28 15.8 27.4C15.8 27 15.7 26.6 15.5 26.4 15.3 26.1 14.9 25.9 14.3 25.9 13.7 25.9 13.3 26.1 13 26.3 12.7 26.5 12.6 26.9 12.5 27.3L10.4 27.3C10.4 26.8 10.5 26.3 10.7 25.9 10.9 25.5 11.2 25.2 11.6 25 11.9 24.7 12.3 24.5 12.8 24.4 13.2 24.3 13.7 24.2 14.3 24.2 15.1 24.2 15.8 24.4 16.4 24.6 17 24.9 17.5 25.4 17.8 26.1 17.9 26.5 18 26.8 18 27.1 18 27.4 18 27.7 18 28.1L18 31.6C18 31.8 18.1 32 18.2 32.1 18.2 32.1 18.4 32.2 18.6 32.2 18.7 32.2 18.7 32.2 18.8 32.2 18.8 32.2 18.8 32.2 18.9 32.2L18.9 33.8Z" fill="#009DFF"/><path d="M26.1 33.8C25.4 34 24.8 34.1 24.1 34.1 23.2 34.1 22.5 33.8 22 33.3 21.5 32.8 21.3 32.1 21.3 31.2L21.3 26.3 19.6 26.3 19.6 24.4 21.3 24.4 21.3 22 23.5 21.5 23.5 24.4 25.9 24.4 25.9 26.3 23.5 26.3 23.5 31C23.5 31.3 23.6 31.6 23.8 31.7 24 31.9 24.2 32 24.6 32 24.8 32 25.1 32 25.3 32 25.5 32 25.7 31.9 26.1 31.9L26.1 33.8Z" fill="#009DFF"/><path d="M28 33.9L30.3 33.9 30.3 24.4 28 24.4 28 33.9ZM27.9 23.1L30.4 23.1 30.4 20.8 27.9 20.8 27.9 23.1Z" fill="#009DFF"/><path d="M39 29.2C39 28.7 38.9 28.3 38.8 27.9 38.8 27.5 38.6 27.1 38.3 26.8 38.1 26.6 37.9 26.5 37.7 26.4 37.5 26.3 37.2 26.2 36.9 26.2 36.6 26.2 36.3 26.3 36 26.4 35.8 26.5 35.6 26.6 35.4 26.8 35.2 27.1 35 27.5 34.9 27.9 34.8 28.3 34.8 28.7 34.8 29.2 34.8 29.6 34.8 30.1 34.9 30.5 35 30.9 35.2 31.3 35.4 31.6 35.6 31.8 35.8 31.9 36 32 36.3 32.1 36.6 32.2 36.9 32.2 37.2 32.2 37.5 32.1 37.7 32 37.9 31.9 38.1 31.8 38.3 31.6 38.6 31.3 38.8 30.9 38.8 30.5 38.9 30.1 39 29.6 39 29.2M41.3 29.2C41.3 30 41.2 30.7 41 31.2 40.8 31.8 40.5 32.3 40.2 32.7 39.8 33.1 39.4 33.5 38.8 33.7 38.2 34 37.6 34.2 36.9 34.2 36.2 34.2 35.5 34 34.9 33.7 34.4 33.5 33.9 33.1 33.6 32.7 33.2 32.3 33 31.8 32.8 31.2 32.6 30.7 32.5 30 32.5 29.2 32.5 28.4 32.6 27.7 32.8 27.2 33 26.6 33.2 26.1 33.6 25.7 33.9 25.3 34.4 24.9 34.9 24.6 35.5 24.4 36.2 24.2 36.9 24.2 37.6 24.2 38.2 24.4 38.8 24.6 39.4 24.9 39.8 25.3 40.2 25.7 40.5 26.1 40.8 26.6 41 27.2 41.2 27.7 41.3 28.4 41.3 29.2" fill="#009DFF"/><path d="M49.2 33.9L49.2 28.1C49.2 27.6 49.1 27.1 48.9 26.8 48.6 26.5 48.2 26.3 47.6 26.3 47.2 26.3 46.9 26.5 46.6 26.7 46.4 26.9 46.2 27.2 46 27.6 45.8 27.9 45.7 28.3 45.7 28.8 45.7 29.3 45.7 29.7 45.7 30.1L45.7 33.9 43.4 33.9 43.4 24.4 45.3 24.4 45.5 25.7C45.8 25.2 46.2 24.8 46.7 24.6 47.2 24.3 47.7 24.2 48.3 24.2 48.8 24.2 49.2 24.3 49.6 24.5 50 24.6 50.3 24.9 50.6 25.2 50.9 25.5 51.1 25.8 51.2 26.2 51.4 26.7 51.4 27.1 51.4 27.6L51.4 33.9 49.2 33.9Z" fill="#009DFF"/><path d="M59.3 29.7L56.9 29.9C56.5 29.9 56.2 30.1 56 30.3 55.7 30.5 55.5 30.8 55.5 31.2 55.5 31.5 55.7 31.8 55.9 32 56.2 32.2 56.5 32.3 56.9 32.3 57.6 32.3 58.2 32.2 58.6 31.8 59.1 31.4 59.3 30.9 59.3 30.2L59.3 29.7ZM62.3 33.8C62.1 33.9 61.9 34 61.8 34 61.7 34.1 61.5 34.1 61.2 34.1 60.7 34.1 60.3 34 60 33.7 59.8 33.4 59.6 33.1 59.6 32.8 59.4 33.2 59 33.5 58.5 33.8 58 34 57.4 34.2 56.7 34.2 56.2 34.2 55.7 34.1 55.2 33.9 54.8 33.8 54.5 33.6 54.2 33.3 53.9 33 53.7 32.7 53.6 32.3 53.4 32 53.3 31.6 53.3 31.2 53.3 30.8 53.4 30.4 53.6 30 53.7 29.6 54 29.3 54.3 29.1 54.5 28.8 54.9 28.6 55.3 28.5 55.7 28.4 56.1 28.3 56.5 28.2L59.3 28 59.3 27.4C59.3 27 59.2 26.6 59 26.4 58.8 26.1 58.3 25.9 57.7 25.9 57.2 25.9 56.7 26.1 56.5 26.3 56.2 26.5 56 26.9 56 27.3L53.8 27.3C53.8 26.8 53.9 26.3 54.2 25.9 54.4 25.5 54.6 25.2 55 25 55.3 24.7 55.7 24.5 56.2 24.4 56.7 24.3 57.2 24.2 57.7 24.2 58.5 24.2 59.2 24.4 59.8 24.6 60.5 24.9 60.9 25.4 61.2 26.1 61.3 26.5 61.4 26.8 61.4 27.1 61.5 27.4 61.5 27.7 61.5 28.1L61.5 31.6C61.5 31.8 61.5 32 61.6 32.1 61.7 32.1 61.8 32.2 62 32.2 62.1 32.2 62.2 32.2 62.2 32.2 62.2 32.2 62.3 32.2 62.3 32.2L62.3 33.8Z" fill="#009DFF"/><path d="M67.8 33.9C67.5 34 67.4 34 67.3 34 67.2 34 67 34.1 66.8 34.1 66 34.1 65.4 33.9 64.9 33.5 64.4 33.1 64.2 32.4 64.2 31.5L64.2 20.7 66.5 20.7 66.5 31.1C66.5 31.4 66.6 31.6 66.7 31.8 66.8 31.9 67 32 67.4 32 67.5 32 67.6 32 67.6 32 67.7 32 67.7 32 67.8 32L67.8 33.9Z" fill="#009DFF"/><path d="M84.6 33.9L84.6 28C84.6 27.5 84.5 27 84.3 26.7 84.1 26.4 83.7 26.2 83.1 26.2 82.8 26.2 82.5 26.3 82.3 26.4 82.1 26.6 81.9 26.8 81.7 27 81.6 27.3 81.5 27.6 81.4 27.9 81.3 28.2 81.3 28.5 81.3 28.8L81.3 33.9 79 33.9 79 28C79 27.5 78.9 27 78.7 26.7 78.5 26.4 78.2 26.2 77.6 26.2 77.3 26.2 77 26.3 76.8 26.4 76.5 26.6 76.3 26.8 76.2 27 76 27.3 75.9 27.6 75.8 27.9 75.8 28.2 75.7 28.5 75.7 28.8L75.7 33.9 73.5 33.9 73.5 24.4 75.4 24.4 75.6 25.7C75.8 25.3 76.2 24.9 76.6 24.6 77.1 24.4 77.6 24.2 78.2 24.2 78.9 24.2 79.4 24.3 79.9 24.6 80.3 24.9 80.7 25.3 80.9 25.8 81.2 25.3 81.6 24.9 82.1 24.6 82.6 24.3 83.1 24.2 83.8 24.2 84.8 24.2 85.5 24.5 86 25.1 86.6 25.7 86.8 26.5 86.8 27.5L86.8 33.9 84.6 33.9Z" fill="#009DFF"/><path d="M94.7 29.7L92.3 29.9C91.9 29.9 91.6 30.1 91.3 30.3 91.1 30.5 90.9 30.8 90.9 31.2 90.9 31.5 91 31.8 91.3 32 91.6 32.2 91.9 32.3 92.3 32.3 93 32.3 93.5 32.2 94 31.8 94.4 31.4 94.7 30.9 94.7 30.2L94.7 29.7ZM97.7 33.8C97.5 33.9 97.3 34 97.2 34 97 34.1 96.8 34.1 96.6 34.1 96.1 34.1 95.7 34 95.4 33.7 95.1 33.4 95 33.1 95 32.8 94.7 33.2 94.4 33.5 93.9 33.8 93.4 34 92.8 34.2 92.1 34.2 91.5 34.2 91 34.1 90.6 33.9 90.2 33.8 89.9 33.6 89.6 33.3 89.3 33 89.1 32.7 88.9 32.3 88.8 32 88.7 31.6 88.7 31.2 88.7 30.8 88.8 30.4 89 30 89.1 29.6 89.3 29.3 89.6 29.1 89.9 28.8 90.3 28.6 90.6 28.5 91 28.4 91.4 28.3 91.9 28.2L94.7 28 94.7 27.4C94.7 27 94.5 26.6 94.3 26.4 94.1 26.1 93.7 25.9 93.1 25.9 92.5 25.9 92.1 26.1 91.8 26.3 91.5 26.5 91.4 26.9 91.3 27.3L89.2 27.3C89.2 26.8 89.3 26.3 89.5 25.9 89.7 25.5 90 25.2 90.4 25 90.7 24.7 91.1 24.5 91.6 24.4 92 24.3 92.5 24.2 93.1 24.2 93.9 24.2 94.6 24.4 95.2 24.6 95.9 24.9 96.3 25.4 96.6 26.1 96.7 26.5 96.8 26.8 96.8 27.1 96.8 27.4 96.9 27.7 96.9 28.1L96.9 31.6C96.9 31.8 96.9 32 97 32.1 97.1 32.1 97.2 32.2 97.4 32.2 97.5 32.2 97.5 32.2 97.6 32.2 97.6 32.2 97.6 32.2 97.7 32.2L97.7 33.8Z" fill="#009DFF"/><path d="M105.1 26.5C104.9 26.5 104.6 26.5 104.4 26.5 103.6 26.5 103 26.7 102.5 27.2 102.1 27.7 101.9 28.4 101.9 29.1L101.9 33.9 99.6 33.9 99.6 24.4 101.6 24.4 101.8 25.9C102 25.3 102.3 24.9 102.8 24.7 103.3 24.4 103.9 24.3 104.4 24.3 104.7 24.3 104.9 24.3 105.1 24.4L105.1 26.5Z" fill="#009DFF"/><path d="M106.8 33.9L109.1 33.9 109.1 24.4 106.8 24.4 106.8 33.9ZM106.7 23.1L109.2 23.1 109.2 20.8 106.7 20.8 106.7 23.1Z" fill="#009DFF"/><path d="M117.3 33.8C116.6 34 116 34.1 115.3 34.1 114.4 34.1 113.7 33.8 113.2 33.3 112.7 32.8 112.5 32.1 112.5 31.2L112.5 26.3 110.8 26.3 110.8 24.4 112.5 24.4 112.5 22 114.7 21.5 114.7 24.4 117.1 24.4 117.1 26.3 114.7 26.3 114.7 31C114.7 31.3 114.8 31.6 115 31.7 115.2 31.9 115.4 32 115.8 32 116 32 116.3 32 116.5 32 116.7 32 116.9 31.9 117.3 31.9L117.3 33.8Z" fill="#009DFF"/><path d="M119.2 33.9L121.5 33.9 121.5 24.4 119.2 24.4 119.2 33.9ZM119.1 23.1L121.6 23.1 121.6 20.8 119.1 20.8 119.1 23.1Z" fill="#009DFF"/><path d="M135.4 33.9L135.4 28C135.4 27.5 135.3 27 135.1 26.7 134.9 26.4 134.5 26.2 134 26.2 133.6 26.2 133.4 26.3 133.1 26.4 132.9 26.6 132.7 26.8 132.6 27 132.4 27.3 132.3 27.6 132.2 27.9 132.2 28.2 132.1 28.5 132.1 28.8L132.1 33.9 129.9 33.9 129.9 28C129.9 27.5 129.8 27 129.6 26.7 129.4 26.4 129 26.2 128.4 26.2 128.1 26.2 127.8 26.3 127.6 26.4 127.4 26.6 127.2 26.8 127 27 126.9 27.3 126.8 27.6 126.7 27.9 126.6 28.2 126.6 28.5 126.6 28.8L126.6 33.9 124.3 33.9 124.3 24.4 126.2 24.4 126.4 25.7C126.7 25.3 127 24.9 127.5 24.6 127.9 24.4 128.4 24.2 129.1 24.2 129.7 24.2 130.3 24.3 130.7 24.6 131.2 24.9 131.5 25.3 131.8 25.8 132 25.3 132.4 24.9 132.9 24.6 133.4 24.3 134 24.2 134.6 24.2 135.6 24.2 136.4 24.5 136.9 25.1 137.4 25.7 137.7 26.5 137.7 27.5L137.7 33.9 135.4 33.9Z" fill="#009DFF"/><path d="M146 28.2C146 27.6 145.8 27 145.4 26.6 145.3 26.4 145.1 26.3 144.9 26.2 144.6 26.1 144.3 26 144 26 143.7 26 143.4 26.1 143.1 26.2 142.8 26.4 142.6 26.5 142.4 26.8 142.3 27 142.2 27.2 142.1 27.4 142 27.7 142 27.9 142 28.2L146 28.2ZM148.3 29.3C148.3 29.4 148.3 29.4 148.3 29.5L148.3 29.9 142 29.9C142 30.3 142 30.6 142.1 31 142.3 31.3 142.4 31.6 142.7 31.8 142.8 31.9 143 32.1 143.2 32.2 143.5 32.3 143.7 32.4 144 32.4 144.4 32.4 144.6 32.3 144.9 32.3 145.1 32.2 145.3 32.1 145.4 31.9 145.6 31.7 145.8 31.4 145.9 31.1L148 31.1C148 31.4 147.9 31.7 147.8 32 147.6 32.4 147.4 32.6 147.2 32.9 146.8 33.3 146.4 33.7 145.8 33.9 145.3 34.1 144.7 34.2 144.1 34.2 143.4 34.2 142.9 34.1 142.4 33.9 141.9 33.7 141.5 33.4 141.1 33 140.7 32.6 140.3 32 140 31.4 139.8 30.7 139.7 30 139.7 29.2 139.7 28.4 139.8 27.7 140 27.1 140.2 26.4 140.6 25.9 141 25.4 141.4 25.1 141.8 24.8 142.3 24.5 142.8 24.3 143.4 24.2 144 24.2 144.7 24.2 145.4 24.4 146 24.6 146.6 24.9 147.1 25.4 147.5 26 147.8 26.5 148 27 148.1 27.6 148.3 28.1 148.3 28.7 148.3 29.3L148.3 29.3Z" fill="#009DFF"/><path d="M11.1 54.7L11.1 48.8C11.1 48.2 11 47.8 10.8 47.4 10.6 47.1 10.2 47 9.6 47 9.3 47 9 47 8.8 47.2 8.6 47.3 8.4 47.5 8.2 47.8 8.1 48 8 48.3 7.9 48.6 7.8 48.9 7.8 49.2 7.8 49.5L7.8 54.7 5.5 54.7 5.5 48.8C5.5 48.2 5.4 47.8 5.2 47.4 5.1 47.1 4.7 47 4.1 47 3.8 47 3.5 47 3.3 47.2 3 47.3 2.8 47.5 2.7 47.8 2.5 48 2.4 48.3 2.3 48.6 2.3 48.9 2.2 49.2 2.2 49.5L2.2 54.7 0 54.7 0 45.2 1.9 45.2 2.1 46.5C2.3 46 2.7 45.7 3.1 45.4 3.6 45.1 4.1 45 4.7 45 5.4 45 6 45.1 6.4 45.4 6.8 45.7 7.2 46 7.4 46.5 7.7 46 8.1 45.6 8.6 45.4 9.1 45.1 9.6 45 10.3 45 11.3 45 12 45.3 12.5 45.9 13.1 46.5 13.3 47.3 13.3 48.3L13.3 54.7 11.1 54.7Z" fill="#FFFFFF"/><path d="M22 54.7L21.8 53.5C21.6 53.9 21.2 54.3 20.7 54.6 20.2 54.8 19.7 54.9 19.1 54.9 18.6 54.9 18.1 54.9 17.7 54.7 17.3 54.5 17 54.3 16.7 54 16.4 53.7 16.2 53.3 16.1 52.9 15.9 52.5 15.8 52.1 15.8 51.5L15.8 45.2 18.1 45.2 18.1 51C18.1 51.6 18.2 52 18.5 52.4 18.7 52.7 19.1 52.8 19.7 52.8 20 52.8 20.2 52.8 20.4 52.7 20.6 52.6 20.8 52.5 20.9 52.4 21.2 52.1 21.3 51.8 21.4 51.4 21.5 51 21.6 50.6 21.6 50.2L21.6 45.2 23.8 45.2 23.8 54.7 22 54.7Z" fill="#FFFFFF"/><path d="M33.9 51.8C33.9 52.2 33.9 52.6 33.7 53 33.6 53.3 33.4 53.6 33.1 53.8 32.8 54.2 32.3 54.5 31.7 54.7 31.2 54.9 30.6 54.9 29.9 54.9 29.3 54.9 28.8 54.9 28.2 54.7 27.7 54.5 27.3 54.2 26.9 53.8 26.6 53.6 26.4 53.3 26.2 52.9 26 52.5 25.9 52.1 25.9 51.6L28 51.6C28 51.8 28.1 52.1 28.1 52.3 28.2 52.5 28.4 52.6 28.5 52.8 28.7 52.9 28.9 53 29.1 53.1 29.3 53.1 29.6 53.2 29.9 53.2 30.1 53.2 30.3 53.2 30.6 53.1 30.8 53.1 31 53 31.2 53 31.4 52.9 31.5 52.7 31.7 52.6 31.8 52.4 31.9 52.2 31.9 52 31.9 51.7 31.8 51.5 31.6 51.3 31.4 51.1 31.2 51 30.9 51 30.5 50.9 30.1 50.8 29.6 50.8 29.2 50.8 28.7 50.7 28.3 50.6 28 50.5 27.7 50.4 27.4 50.2 27.2 50.1 27 49.9 26.8 49.7 26.6 49.4 26.4 49.2 26.3 48.9 26.2 48.7 26.2 48.4 26.2 48.1 26.2 47.6 26.3 47.2 26.4 46.8 26.6 46.5 26.8 46.2 27.1 45.9 27.5 45.6 27.9 45.4 28.4 45.2 28.8 45.1 29.4 45 30 45 30.5 45 31.1 45.1 31.6 45.2 32.1 45.4 32.6 45.7 32.9 46.1 33.2 46.4 33.4 46.7 33.5 47 33.7 47.3 33.7 47.7 33.7 48L31.6 48C31.6 47.9 31.6 47.7 31.5 47.5 31.4 47.4 31.3 47.3 31.2 47.1 31.1 47 30.9 46.9 30.7 46.8 30.5 46.7 30.2 46.7 30 46.7 29.8 46.7 29.7 46.7 29.5 46.7 29.3 46.7 29.2 46.8 29 46.9 28.8 46.9 28.6 47.1 28.5 47.2 28.4 47.4 28.3 47.6 28.3 47.9 28.3 48.2 28.4 48.4 28.6 48.6 28.9 48.7 29.1 48.8 29.4 48.8 29.6 48.8 29.8 48.9 29.9 48.9 30.1 48.9 30.2 48.9 30.4 48.9 30.5 48.9 30.6 49 30.8 49 31 49 31.2 49 31.4 49.1 32.1 49.2 32.7 49.5 33.2 49.9 33.7 50.4 33.9 51 33.9 51.8" fill="#FFFFFF"/><path d="M41.8 49C41.7 48.3 41.5 47.8 41.2 47.3 41 47.2 40.8 47 40.6 46.9 40.4 46.8 40.1 46.8 39.7 46.8 39.4 46.8 39.1 46.9 38.8 47 38.6 47.1 38.3 47.3 38.2 47.5 38 47.7 37.9 48 37.8 48.2 37.7 48.4 37.7 48.7 37.7 49L41.8 49ZM44 50C44 50.1 44 50.2 44 50.3L44 50.7 37.7 50.7C37.7 51 37.7 51.4 37.9 51.7 38 52 38.2 52.3 38.4 52.5 38.6 52.7 38.8 52.8 39 52.9 39.2 53.1 39.5 53.1 39.8 53.1 40.1 53.1 40.4 53.1 40.6 53 40.8 52.9 41 52.8 41.2 52.7 41.4 52.4 41.5 52.2 41.6 51.9L43.8 51.9C43.8 52.1 43.7 52.4 43.5 52.8 43.3 53.1 43.2 53.4 43 53.6 42.6 54.1 42.1 54.4 41.6 54.6 41 54.8 40.4 54.9 39.8 54.9 39.2 54.9 38.6 54.8 38.1 54.6 37.7 54.4 37.2 54.1 36.9 53.8 36.4 53.3 36 52.8 35.8 52.1 35.5 51.5 35.4 50.8 35.4 50 35.4 49.2 35.5 48.5 35.7 47.8 36 47.2 36.3 46.6 36.8 46.2 37.1 45.8 37.5 45.5 38 45.3 38.5 45.1 39.1 45 39.8 45 40.5 45 41.1 45.1 41.7 45.4 42.3 45.7 42.8 46.1 43.2 46.7 43.5 47.2 43.8 47.8 43.9 48.3 44 48.9 44 49.4 44 50L44 50Z" fill="#FFFFFF"/><path d="M52.1 54.7L51.9 53.5C51.7 53.9 51.3 54.3 50.9 54.6 50.4 54.8 49.8 54.9 49.2 54.9 48.7 54.9 48.3 54.9 47.9 54.7 47.5 54.5 47.1 54.3 46.9 54 46.6 53.7 46.4 53.3 46.2 52.9 46.1 52.5 46 52.1 46 51.5L46 45.2 48.2 45.2 48.2 51C48.2 51.6 48.4 52 48.6 52.4 48.8 52.7 49.3 52.8 49.9 52.8 50.1 52.8 50.4 52.8 50.5 52.7 50.7 52.6 50.9 52.5 51 52.4 51.3 52.1 51.5 51.8 51.6 51.4 51.7 51 51.7 50.6 51.7 50.2L51.7 45.2 54 45.2 54 54.7 52.1 54.7Z" fill="#FFFFFF"/><path d="M67.9 54.7L67.9 48.8C67.9 48.2 67.8 47.8 67.6 47.4 67.4 47.1 67 47 66.4 47 66.1 47 65.8 47 65.6 47.2 65.4 47.3 65.2 47.5 65 47.8 64.9 48 64.8 48.3 64.7 48.6 64.6 48.9 64.6 49.2 64.6 49.5L64.6 54.7 62.3 54.7 62.3 48.8C62.3 48.2 62.2 47.8 62 47.4 61.8 47.1 61.5 47 60.9 47 60.6 47 60.3 47 60.1 47.2 59.8 47.3 59.6 47.5 59.5 47.8 59.3 48 59.2 48.3 59.1 48.6 59.1 48.9 59 49.2 59 49.5L59 54.7 56.8 54.7 56.8 45.2 58.7 45.2 58.8 46.5C59.1 46 59.5 45.7 59.9 45.4 60.4 45.1 60.9 45 61.5 45 62.2 45 62.7 45.1 63.2 45.4 63.6 45.7 64 46 64.2 46.5 64.5 46 64.9 45.6 65.4 45.4 65.8 45.1 66.4 45 67 45 68.1 45 68.8 45.3 69.3 45.9 69.8 46.5 70.1 47.3 70.1 48.3L70.1 54.7 67.9 54.7Z" fill="#FFFFFF"/></g></g></g></svg>