<svg width="304" height="138" viewBox="0 0 304 138" fill="none" xmlns="http://www.w3.org/2000/svg">
<g clip-path="url(#clip0_48_663)">
<path d="M151.442 34.0566L151.434 34.1036L151.412 34.2395L149.176 48.4477L135.487 52.896L135.273 52.8052L127.609 49.5816L123.646 36.1149L123.374 35.1905L123.457 35.1624L140.411 29.5211L151.432 34.0512L151.442 34.0566Z" fill="#00509E"/>
<path d="M135.273 52.8052L127.609 49.5816L123.374 35.1905L123.457 35.1624L134.503 39.2896L135.273 52.8052Z" fill="#00509E"/>
<path opacity="0.2" d="M135.465 52.6409L129.635 42.7467L130.384 39.9417L126.858 36.2641L126.557 36.49L129.955 40.033L127.417 49.5413L127.801 49.6218L129.497 43.2658L135.116 52.8022L135.465 52.6409Z" fill="black"/>
<path d="M151.442 34.2309L151.412 34.2395L134.503 39.4642L123.646 36.1149L123.374 35.1905L123.457 35.1624L140.411 29.5211L151.432 34.0512L151.434 34.1036L151.442 34.2309Z" fill="#3F3D56"/>
<path d="M134.798 39.7258L131.351 37.371L132.139 34.7543L141.987 31.6143L148.684 31.9631L151.343 33.9693L151.54 34.4925L134.798 39.7258Z" fill="#00509E"/>
<path d="M123.571 35.1905L131.351 34.9286L135.566 33.6618L142.137 31.6143L143.366 30.0445L140.299 29.5583L123.571 35.1905Z" fill="#00509E"/>
<path d="M139.072 32.3834L135.015 33.6442L135.145 33.9733L139.202 32.7125L139.072 32.3834Z" fill="#CCCCCC"/>
<path d="M85.6389 11.9831L83.7371 20.4043L92.6119 26.2994L96.7327 15.3515L85.6389 11.9831Z" fill="#9F616A"/>
<path d="M92.7705 19.7026C97.4969 19.7026 101.328 16.3093 101.328 12.1234C101.328 7.93753 97.4969 4.54419 92.7705 4.54419C88.0441 4.54419 84.2126 7.93753 84.2126 12.1234C84.2126 16.3093 88.0441 19.7026 92.7705 19.7026Z" fill="#9F616A"/>
<path d="M74.2283 69.55C74.2674 71.9953 86.2927 99.2098 84.623 102.753C81.9911 105.136 76.3299 117.818 73.9112 121.201C73.5944 121.201 72.0096 125.412 72.0096 125.412C72.0096 125.412 75.8131 130.745 79.9336 128.5C85.1147 117.707 98.0903 111.688 98.3196 97.6222C98.9459 102.066 100.795 130.587 100.795 130.587C100.795 130.587 100.44 130.721 108.423 131.398C109.662 114.844 114.727 86.6814 103.388 68.9883C99.9021 67.585 74.2283 69.55 74.2283 69.55Z" fill="#2F2E41"/>
<path d="M100.794 130.032C100.424 130.663 97.7661 136.489 100.184 137.073C102.973 137.746 105.677 136.803 105.677 136.803C105.677 136.803 110.559 138.154 113.546 136.436C114.941 135.201 114.624 134.079 113.958 133.265C113.62 132.864 113.187 132.533 112.69 132.296C112.193 132.058 111.643 131.92 111.078 131.89C109.562 131.794 109.081 131.545 108.907 130.93C108.654 130.032 100.794 130.032 100.794 130.032Z" fill="#2F2E41"/>
<path d="M74.7142 124.945C74.7142 124.945 67.9018 126.85 69.336 129.073C70.2674 130.451 71.6274 131.561 73.2532 132.272C73.2532 132.272 74.674 137.46 78.618 137.46C80.59 137.46 81.2623 136.467 81.4416 135.475C81.5226 134.98 81.4806 134.475 81.3185 133.995C81.1563 133.516 80.878 133.073 80.5028 132.699C79.5072 131.682 79.3654 131.205 79.7338 130.661C80.2716 129.867 74.7142 124.945 74.7142 124.945Z" fill="#2F2E41"/>
<path d="M104.975 70.3718C104.975 70.3718 103.706 72.6174 98.6344 71.7743C93.5632 70.9338 73.5958 71.7743 73.5958 71.7743C73.5958 71.7743 74.7034 51.7043 72.1678 39.6331C69.6322 27.5619 79.6159 20.6845 79.6159 20.6845L82.7862 17.8768C85.9564 17.5985 92.6509 26.3107 92.6509 26.3107C94.8539 26.6377 96.9104 34.9311 98.6649 42.7785C98.7687 43.2271 98.8663 43.6703 98.9639 44.1135C99.7725 47.7724 100.898 51.8448 101.573 55.501C101.622 55.7604 101.667 56.0171 101.71 56.2739C102.512 61.0217 103.602 65.7278 104.975 70.3718Z" fill="#E6E6E6"/>
<path d="M82.7588 7.40412C82.7588 7.40412 81.1588 4.2866 85.3189 2.86954C85.3189 2.86954 88.839 -2.23187 95.8792 1.16908C95.8792 1.16908 100.679 2.86954 100.679 7.40412C100.679 11.9387 102.279 12.7889 102.279 12.7889C102.279 12.7889 99.8966 10.624 99.2566 8.92356C98.6166 7.2231 93.6391 6.83731 91.7191 8.53777C89.799 10.2382 84.9989 9.95483 84.9989 9.95483L85.3189 16.1899C85.3189 16.1899 83.7189 12.5055 83.0789 12.5055C82.4388 12.5055 81.7988 7.40412 82.7588 7.40412Z" fill="#2F2E41"/>
<path opacity="0.2" d="M101.573 55.501C94.0117 51.861 81.764 43.8784 77.8126 39.5601C72.6041 33.8718 78.2856 29.5481 78.2856 29.5481C84.7268 25.9486 92.4281 38.2981 92.4281 38.2981L98.6649 42.7786C98.7686 43.2271 98.8663 43.6703 98.9639 44.1135C99.7725 47.7724 100.898 51.8448 101.573 55.501Z" fill="black"/>
<path d="M124.144 51.3063C124.144 51.3063 135.385 55.3477 137.235 50.8046C139.085 46.2615 128.36 46.3394 128.36 46.3394L124.15 46.8678L124.144 51.3063Z" fill="#9F616A"/>
<path d="M76.8448 27.6994C76.8448 27.6994 71.1661 32.0256 76.3709 37.712C81.5756 43.3985 105.495 55.5484 105.495 55.5484L121.076 51.8181L125.485 52.5327L126.317 45.2012L119.821 45.7628L103.332 42.6533L92.817 35.0973C92.817 35.0973 83.2843 24.1018 76.8448 27.6994Z" fill="#E6E6E6"/>
<path opacity="0.2" d="M97.5321 79.8157L98.5256 100.375L96.0065 79.8157H97.5321Z" fill="black"/>
<path d="M204.794 65.1089L195.776 66.9597C195.078 67.1029 194.345 66.9995 193.732 66.6715C193.119 66.3435 192.674 65.8168 192.493 65.2032C192.388 64.8474 192.375 64.4751 192.455 64.1142C192.535 63.7533 192.707 63.4133 192.957 63.1195C193.207 62.8257 193.529 62.5859 193.898 62.4179C194.268 62.25 194.675 62.1583 195.09 62.1497L203.802 61.9703L204.794 65.1089Z" fill="#FFB9B9"/>
<path d="M203.837 66.2811L201.834 60.9592L213.842 57.3266L210.655 32.4692C216.393 33.3932 219.124 37.3895 218.869 42.5499L220.422 59.5118L203.837 66.2811Z" fill="#3F3D56"/>
<path d="M212.134 26.9889H231.753V18.3481C231.76 16.0145 230.727 13.7726 228.879 12.1089C227.977 11.2893 226.898 10.6382 225.707 10.1943C224.515 9.75027 223.235 9.52236 221.943 9.524C219.361 9.52821 216.885 10.4321 215.05 12.0401C213.215 13.6482 212.169 15.8313 212.137 18.1173C212.135 18.1964 212.134 18.2716 212.134 18.3481L212.134 26.9889Z" fill="#2F2E41"/>
<path d="M239.956 128.53L233.685 127.892L226.179 83.0034L210.655 128.074L203.87 128.257L211.58 72.8055L210.449 60.1492L229.675 54.7771C243.292 63.1956 243.01 92.9303 239.956 128.53Z" fill="#2F2E41"/>
<path d="M220.216 25.2761C224.305 25.2761 227.619 22.341 227.619 18.7203C227.619 15.0997 224.305 12.1646 220.216 12.1646C216.128 12.1646 212.814 15.0997 212.814 18.7203C212.814 22.341 216.128 25.2761 220.216 25.2761Z" fill="#FFB9B9"/>
<path d="M227.619 30.5571L215.076 33.4708C217.189 29.8716 217.865 26.5117 216.721 23.455L225.563 22.1803C224.994 25.1031 225.732 28.1071 227.619 30.5571Z" fill="#FFB9B9"/>
<path d="M231.834 57.2355C224.799 61.1979 216.604 65.7497 210.552 61.3329L207.674 48.9498C205.386 47.145 206.4 41.5757 209.493 33.6374C209.69 33.1335 210.013 32.6758 210.439 32.2991C210.865 31.9223 211.382 31.6364 211.951 31.463L216.721 30.0109C218.835 31.5852 222.3 30.6462 226.385 28.554L231.114 29.6466L233.171 43.3045C230.202 47.2431 230.721 52.4873 231.834 57.2355Z" fill="#3F3D56"/>
<path d="M225.973 62.5594L216.954 64.4102C216.257 64.5534 215.524 64.45 214.911 64.122C214.298 63.794 213.853 63.2673 213.672 62.6537C213.566 62.2979 213.554 61.9256 213.634 61.5647C213.714 61.2038 213.886 60.8638 214.136 60.57C214.386 60.2762 214.708 60.0364 215.077 59.8684C215.447 59.7005 215.854 59.6088 216.269 59.6002L224.981 59.4208L225.973 62.5594Z" fill="#FFB9B9"/>
<path d="M238.866 137.112C237.813 137.538 236.93 134.899 236.042 135.672C233.557 137.835 227.595 137.35 227.595 137.35C227.395 137.293 227.21 137.201 227.051 137.079C226.892 136.957 226.763 136.807 226.672 136.639C226.58 136.472 226.528 136.29 226.519 136.103C226.509 135.917 226.542 135.732 226.616 135.557C226.704 135.349 226.848 135.162 227.036 135.014C227.224 134.865 227.45 134.76 227.694 134.706L230.337 134.12L234.486 127.657L239.009 127.15L239.123 127.316C239.998 128.564 240.561 129.962 240.777 131.419C240.992 132.875 240.855 134.355 240.373 135.76C239.997 136.828 239.485 136.862 238.866 137.112Z" fill="#2F2E41"/>
<path d="M209.051 137.112C207.998 137.538 207.115 134.899 206.227 135.672C203.742 137.835 197.78 137.35 197.78 137.35C197.58 137.293 197.395 137.201 197.236 137.079C197.078 136.957 196.949 136.807 196.857 136.639C196.765 136.472 196.713 136.29 196.704 136.103C196.694 135.917 196.727 135.732 196.801 135.557C196.889 135.349 197.033 135.162 197.221 135.014C197.409 134.865 197.635 134.76 197.879 134.706L200.522 134.12L204.672 127.657L209.194 127.15L209.308 127.316C210.183 128.564 210.746 129.962 210.962 131.419C211.177 132.875 211.04 134.355 210.558 135.76C210.182 136.828 209.67 136.862 209.051 137.112Z" fill="#2F2E41"/>
<path d="M228.894 13.2523L227.03 18.5054L210.911 18.2517C210.966 16.4138 211.668 14.637 212.919 13.1695C214.17 11.702 215.907 10.6172 217.888 10.0665C219.868 9.51585 221.994 9.52687 223.967 10.098C225.94 10.6692 227.663 11.7719 228.894 13.2523H228.894Z" fill="#2F2E41"/>
<path d="M225.016 63.7316L223.013 58.4097L235.021 54.7771L230.479 29.3811C233.254 29.8279 235.752 31.1498 237.511 33.1021C239.27 35.0544 240.171 37.505 240.047 40.0004L241.601 56.9623L225.016 63.7316Z" fill="#3F3D56"/>
<path d="M196.334 49.3841L183.845 51.7629L181.293 40.8799L185.993 35.2897L190.224 34.576L194.924 38.7983L196.334 49.3841Z" fill="#CCCCCC"/>
<path d="M190.56 49.8586H183.038L182.013 45.3755L180.89 40.4627L182.568 38.3224L185.794 39.2142L189.284 43.4974L190.16 47.8616L190.221 48.1723L190.56 49.8586Z" fill="#E6E6E6"/>
<path d="M203.184 47.243L194.521 48.1351L196.066 38.3822L199.557 35.5869L202.579 36.2411L204.594 40.3446L203.184 47.243Z" fill="#CCCCCC"/>
<path d="M204.324 41.4733L203.518 45.3998L200.9 58.7789L190.828 61.6352L190.48 61.4677L185.052 58.8383L181.998 45.3701L182.013 45.3755L190.09 48.2534L190.16 47.8616L190.209 47.5778L190.828 44.0919L193.58 41.4733L202.78 39.5115L204.324 41.4733Z" fill="#E6E6E6"/>
<path d="M197.946 41.0582C199.133 41.0582 200.095 40.2062 200.095 39.1552C200.095 38.1042 199.133 37.2521 197.946 37.2521C196.759 37.2521 195.797 38.1042 195.797 39.1552C195.797 40.2062 196.759 41.0582 197.946 41.0582Z" fill="#E6E6E6"/>
<path d="M192.663 40.1373L187.761 40.9104L187.785 41.0275L192.687 40.2544L192.663 40.1373Z" fill="white"/>
<path d="M190.48 61.4677L185.052 58.8383L181.998 45.3701L182.013 45.3755L180.89 40.4627L182.568 38.3224L185.794 39.2142L189.284 43.4974L190.16 47.8616L190.209 47.5778L190.221 48.1723L190.254 49.8586L190.48 61.4677Z" fill="#F2F2F2"/>
<path d="M185.118 58.8551L184.988 58.8243L187.666 49.9321L184.6 46.3523L184.707 46.2805L187.813 49.9064L185.118 58.8551Z" fill="#CCCCCC"/>
<path d="M186.63 53.7785L186.509 53.8301L190.768 61.6605L190.889 61.6089L186.63 53.7785Z" fill="#CCCCCC"/>
<path opacity="0.2" d="M203.795 44.5849L203.291 47.0523L203.266 47.0547L201.008 58.5894L190.936 61.444L190.875 61.4695L190.835 61.3952L185.161 58.6489L185.096 58.6334L185.131 58.5169L182.106 45.179L182.121 45.1843L181.786 43.7202L182.036 43.4008L182.811 42.4136L186.034 43.3057L189.525 47.5875L189.577 47.842L189.943 49.669L190.09 50.4028L190.401 51.9532L190.697 50.2874L190.803 49.688L191.07 48.1822L193.823 45.5655L195.047 45.3045L195.899 45.1225L197.072 44.8727C196.708 44.677 196.418 44.3901 196.239 44.0483C196.06 43.7065 195.999 43.3253 196.065 42.953C196.13 42.5806 196.319 42.2339 196.608 41.9568C196.896 41.6797 197.271 41.4846 197.684 41.3963C198.098 41.3081 198.532 41.3305 198.931 41.4609C199.33 41.5913 199.677 41.8238 199.927 42.1288C200.177 42.4338 200.319 42.7977 200.335 43.1743C200.351 43.5509 200.241 43.9232 200.018 44.2441L203.022 43.603L203.763 44.5444L203.795 44.5849Z" fill="black"/>
<path d="M190.801 54.5455H183.281L181.132 45.1493L182.811 43.0082L186.034 43.9003L189.526 48.1821L190.801 54.5455Z" fill="#E6E6E6"/>
<path d="M201.142 63.466L191.07 66.3204L185.295 63.5254L182.24 50.0555L190.331 52.9397L191.07 48.7768L193.823 46.1602L203.022 44.1978L204.567 46.1602L203.761 50.0853L201.142 63.466Z" fill="#E6E6E6"/>
<path d="M198.188 45.7439C199.374 45.7439 200.336 44.8919 200.336 43.8409C200.336 42.7899 199.374 41.9379 198.188 41.9379C197.001 41.9379 196.039 42.7899 196.039 43.8409C196.039 44.8919 197.001 45.7439 198.188 45.7439Z" fill="#E6E6E6"/>
<path d="M190.727 66.0616L185.299 63.4322L182.245 49.9639L182.26 49.9693L181.137 45.0565L182.816 42.9163L186.041 43.8081L189.531 48.0912L190.407 52.4555L190.456 52.1717L190.468 52.7662L190.502 54.4525L190.727 66.0616Z" fill="#F2F2F2"/>
<path d="M185.36 63.5406L185.23 63.51L187.908 54.6176L184.842 51.0378L184.949 50.9659L188.055 54.5922L185.36 63.5406Z" fill="#CCCCCC"/>
<path d="M186.872 58.4643L186.751 58.5159L191.009 66.3463L191.13 66.2947L186.872 58.4643Z" fill="#CCCCCC"/>
<path d="M275.057 125.682L262.567 128.061L260.015 117.178L264.716 111.588L268.946 110.874L273.646 115.097L275.057 125.682Z" fill="#CCCCCC"/>
<path d="M269.282 126.157H261.761L260.735 121.674L259.613 116.761L261.291 114.621L264.516 115.513L268.007 119.796L268.882 124.16L268.943 124.471L269.282 126.157Z" fill="#E6E6E6"/>
<path d="M281.906 123.541L273.244 124.434L274.788 114.681L278.28 111.886L281.301 112.54L283.316 116.643L281.906 123.541Z" fill="#CCCCCC"/>
<path d="M283.046 117.772L282.241 121.698L279.623 135.077L269.55 137.934L269.203 137.766L263.774 135.137L260.72 121.668L260.735 121.674L268.812 124.552L268.882 124.16L268.931 123.876L269.55 120.39L272.303 117.772L281.502 115.81L283.046 117.772Z" fill="#E6E6E6"/>
<path d="M276.668 117.357C277.855 117.357 278.817 116.505 278.817 115.454C278.817 114.403 277.855 113.551 276.668 113.551C275.482 113.551 274.52 114.403 274.52 115.454C274.52 116.505 275.482 117.357 276.668 117.357Z" fill="#E6E6E6"/>
<path d="M271.385 116.436L266.483 117.209L266.507 117.326L271.409 116.553L271.385 116.436Z" fill="white"/>
<path d="M269.203 137.766L263.774 135.137L260.72 121.668L260.735 121.674L259.613 116.761L261.291 114.621L264.516 115.513L268.007 119.796L268.882 124.16L268.931 123.876L268.943 124.471L268.977 126.157L269.203 137.766Z" fill="#F2F2F2"/>
<path d="M263.841 135.153L263.711 135.123L266.388 126.23L263.322 122.651L263.429 122.579L266.535 126.205L263.841 135.153Z" fill="#CCCCCC"/>
<path d="M265.352 130.077L265.231 130.129L269.49 137.959L269.611 137.907L265.352 130.077Z" fill="#CCCCCC"/>
<path d="M299.736 136.896H291.498L290.278 122.844H300.957L299.736 136.896Z" fill="#E6E6E6"/>
<path d="M301.109 128.519H290.125V130.681H301.109V128.519Z" fill="#F2F2F2"/>
<path d="M303.932 123.853L302.176 123.395L302.153 122.825L294.348 120.789L293.98 121.257L292.224 120.799L291.122 122.201L304 125.561L303.932 123.853Z" fill="#CCCCCC"/>
<path d="M45.5631 119.16L45.5552 119.207L45.5335 119.344L43.2979 133.552L29.6087 138L29.3942 137.909L21.7301 134.686L17.7671 121.219L17.4956 120.294L17.5783 120.267L34.5329 114.625L45.5531 119.155L45.5631 119.16Z" fill="#00509E"/>
<path d="M29.3942 137.909L21.7301 134.686L17.4956 120.294L17.5783 120.267L28.6241 124.394L29.3942 137.909Z" fill="#00509E"/>
<path opacity="0.2" d="M29.5865 137.745L23.7568 127.851L24.5055 125.046L20.9792 121.368L20.679 121.594L24.0762 125.137L21.5385 134.645L21.922 134.726L23.6182 128.37L29.2371 137.906L29.5865 137.745Z" fill="black"/>
<path d="M45.5631 119.335L45.5335 119.344L28.6241 124.568L17.7671 121.219L17.4956 120.294L17.5783 120.267L34.5329 114.625L45.5531 119.155L45.5552 119.207L45.5631 119.335Z" fill="#3F3D56"/>
<path d="M28.9195 124.83L25.4725 122.475L26.2603 119.858L36.1085 116.718L42.8054 117.067L45.4646 119.073L45.6614 119.597L28.9195 124.83Z" fill="#00509E"/>
<path d="M17.6924 120.294L25.4725 120.033L29.6872 118.766L36.2583 116.718L37.4874 115.148L34.4209 114.662L17.6924 120.294Z" fill="#00509E"/>
<path d="M33.1931 117.487L29.1364 118.748L29.2668 119.077L33.3235 117.816L33.1931 117.487Z" fill="#CCCCCC"/>
<path d="M10.9845 137.219H2.74614L1.52563 123.167H12.205L10.9845 137.219Z" fill="#00509E"/>
<path d="M12.3576 128.842H1.37308V131.004H12.3576V128.842Z" fill="#E6E6E6"/>
<path d="M12.8153 122.357H10.9845L10.781 121.816H2.64452L2.441 122.357H0.610251L0 123.978H13.4255L12.8153 122.357Z" fill="#3F3D56"/>
<path d="M246.645 137.053H61.7094V137.594H246.645V137.053Z" fill="#3F3D56"/>
</g>
<defs>
<clipPath id="clip0_48_663">
<rect width="304" height="138" fill="white"/>
</clipPath>
</defs>
</svg>
